<svg width="32" height="32" viewBox="0 0 32 32" fill="none" xmlns="http://www.w3.org/2000/svg">
<path fill-rule="evenodd" clip-rule="evenodd" d="M10.4527 2.66651H8.21658C7.51376 2.66648 6.90734 2.66647 6.40794 2.70727C5.88081 2.75033 5.35652 2.84543 4.85201 3.10248C4.09937 3.48597 3.48744 4.09791 3.10394 4.85055C2.84689 5.35505 2.7518 5.87934 2.70873 6.40648C2.66793 6.90588 2.66794 7.5122 2.66797 8.21501V23.7845C2.66794 24.4874 2.66793 25.0938 2.70873 25.5932C2.7518 26.1204 2.84689 26.6446 3.10394 27.1492C3.48744 27.9018 4.09937 28.5137 4.85201 28.8972C5.35652 29.1542 5.88081 29.2493 6.40794 29.2924C6.90736 29.3332 7.5137 29.3332 8.21656 29.3332H10.4527C11.1556 29.3332 11.7619 29.3332 12.2613 29.2924C12.7885 29.2493 13.3128 29.1542 13.8173 28.8972C14.57 28.5137 15.1818 27.9018 15.5653 27.1492C15.8224 26.6446 15.9174 26.1204 15.9605 25.5932C16.0013 25.0938 16.0013 24.4874 16.0013 23.7846V8.21515C16.0013 7.51229 16.0013 6.90591 15.9605 6.40648C15.9174 5.87934 15.8224 5.35505 15.5653 4.85055C15.1818 4.09791 14.57 3.48597 13.8173 3.10248C13.3128 2.84543 12.7885 2.75033 12.2613 2.70727C11.7619 2.66647 11.1555 2.66648 10.4527 2.66651ZM9.33464 23.9998C10.071 23.9998 10.668 23.4029 10.668 22.6665C10.668 21.9301 10.071 21.3332 9.33464 21.3332C8.59826 21.3332 8.0013 21.9301 8.0013 22.6665C8.0013 23.4029 8.59826 23.9998 9.33464 23.9998Z" fill="url(#paint0_linear_9117_29819)"/>
<path opacity="0.2" d="M17.3047 25.4564L26.2182 16.5429C26.7152 16.0458 27.144 15.6172 27.4683 15.2352C27.8106 14.832 28.114 14.394 28.289 13.8554C28.55 13.0521 28.55 12.1867 28.289 11.3833C28.114 10.8448 27.8106 10.4068 27.4683 10.0036C27.144 9.62165 26.7152 9.1929 26.2182 8.69591L24.637 7.11475C24.14 6.61773 23.7112 6.18895 23.3292 5.86466C22.9262 5.52238 22.4882 5.21889 21.9496 5.04391C21.1463 4.78289 20.2808 4.78289 19.4775 5.04391C18.939 5.21889 18.501 5.52238 18.0978 5.86466C17.8551 6.07067 17.5936 6.31883 17.3078 6.59987C17.333 7.08265 17.333 7.62229 17.333 8.17387V23.8258C17.333 24.399 17.333 24.9594 17.3047 25.4564Z" fill="url(#paint1_linear_9117_29819)"/>
<path opacity="0.2" d="M15.4284 28.9257L14.4375 29.3328H23.7835C24.4863 29.3329 25.0927 29.3329 25.5922 29.2921C26.1192 29.2491 26.6436 29.1539 27.148 28.8969C27.9007 28.5133 28.5127 27.9015 28.8962 27.1488C29.1532 26.6443 29.2483 26.12 29.2914 25.5929C29.3322 25.0935 29.3322 24.4871 29.3322 23.7843V21.5481C29.3322 20.8452 29.3322 20.2389 29.2914 19.7395C29.2483 19.2124 29.1532 18.688 28.8962 18.1836C28.6294 17.66 28.252 17.2044 27.7936 16.8467C27.5995 17.0461 27.3955 17.25 27.1892 17.4563L16.3007 28.3448C16.0512 28.5943 15.7547 28.7917 15.4284 28.9257Z" fill="url(#paint2_linear_9117_29819)"/>
<defs>
<linearGradient id="paint0_linear_9117_29819" x1="2.66797" y1="15.9998" x2="16.0013" y2="15.9998" gradientUnits="userSpaceOnUse">
<stop stop-color="#FF4308"/>
<stop offset="1" stop-color="#FB8500"/>
</linearGradient>
<linearGradient id="paint1_linear_9117_29819" x1="17.3047" y1="15.1523" x2="28.4848" y2="15.1523" gradientUnits="userSpaceOnUse">
<stop stop-color="#FF4308"/>
<stop offset="1" stop-color="#FB8500"/>
</linearGradient>
<linearGradient id="paint2_linear_9117_29819" x1="14.4375" y1="23.0898" x2="29.3322" y2="23.0898" gradientUnits="userSpaceOnUse">
<stop stop-color="#FF4308"/>
<stop offset="1" stop-color="#FB8500"/>
</linearGradient>
</defs>
</svg>
