<svg width="24" height="32" viewBox="0 0 24 32" fill="none" xmlns="http://www.w3.org/2000/svg">
<g clip-path="url(#clip0_9375_716)">
<path d="M14 24C14 22.8937 14.8937 22 16 22H24L14 32V24Z" fill="white"/>
<path opacity="0.4" d="M4 32C1.79063 32 0 30.2062 0 28V4C0 1.79063 1.79063 0 4 0H20C22.2062 0 24 1.79063 24 4V22H16C14.8937 22 14 22.8937 14 24V32H4ZM10.7063 3.29312C10.3188 2.9025 9.68125 2.9025 9.29375 3.29312L3.29312 9.29375C2.9025 9.68125 2.9025 10.3188 3.29312 10.7063C3.68312 11.1 4.31625 11.1 4.70687 10.7063L10.7063 4.70687C11.1 4.31687 11.1 3.68375 10.7063 3.29312ZM16.7062 6.70625C17.1 6.31875 17.1 5.68313 16.7062 5.29313C16.3187 4.9025 15.6812 4.9025 15.2937 5.29313L5.29313 15.2937C4.9025 15.6812 4.9025 16.3187 5.29313 16.7062C5.68313 17.1 6.31875 17.1 6.70625 16.7062L16.7062 6.70625Z" fill="white"/>
</g>
<defs>
<clipPath id="clip0_9375_716">
<rect width="24" height="32" fill="white"/>
</clipPath>
</defs>
</svg>
