<svg width="16" height="18" viewBox="0 0 16 18" fill="none" xmlns="http://www.w3.org/2000/svg">
<path d="M3.83333 8.16797H5.5V9.83463H3.83333V8.16797ZM15.5 4.0013V15.668C15.5 16.5846 14.75 17.3346 13.8333 17.3346H2.16667C1.72464 17.3346 1.30072 17.159 0.988155 16.8465C0.675595 16.5339 0.5 16.11 0.5 15.668L0.508333 4.0013C0.508333 3.08464 1.24167 2.33464 2.16667 2.33464H3V0.667969H4.66667V2.33464H11.3333V0.667969H13V2.33464H13.8333C14.75 2.33464 15.5 3.08464 15.5 4.0013ZM2.16667 5.66797H13.8333V4.0013H2.16667V5.66797ZM13.8333 15.668V7.33463H2.16667V15.668H13.8333ZM10.5 9.83463H12.1667V8.16797H10.5V9.83463ZM7.16667 9.83463H8.83333V8.16797H7.16667V9.83463Z" fill="white"/>
</svg>
