<svg width="32" height="32" viewBox="0 0 32 32" fill="none" xmlns="http://www.w3.org/2000/svg">
<path opacity="0.2" fill-rule="evenodd" clip-rule="evenodd" d="M1.49047 4.45705C1 5.41964 1 6.67976 1 9.2V21.8C1 24.3203 1 25.5803 1.49047 26.543C1.9219 27.3897 2.61031 28.0781 3.45705 28.5095C4.41964 29 5.67976 29 8.2 29H23.8C26.3203 29 27.5803 29 28.543 28.5095C29.3897 28.0781 30.0781 27.3897 30.5095 26.543C31 25.5803 31 24.3203 31 21.8V9.2C31 6.67976 31 5.41964 30.5095 4.45705C30.0781 3.61031 29.3897 2.9219 28.543 2.49047C27.5803 2 26.3203 2 23.8 2H8.2C5.67976 2 4.41964 2 3.45705 2.49047C2.61031 2.9219 1.9219 3.61031 1.49047 4.45705Z" fill="url(#paint0_linear_9117_29864)"/>
<path fill-rule="evenodd" clip-rule="evenodd" d="M13.0002 11C13.0002 9.34314 14.3433 8 16.0002 8C17.6571 8 19.0002 9.34314 19.0002 11C19.0002 12.6569 17.6571 14 16.0002 14C14.3433 14 13.0002 12.6569 13.0002 11ZM16.0002 15.5C13.0259 15.5 10.5595 17.663 10.0832 20.5018C10.0102 20.9369 10.1324 21.3821 10.4175 21.719C10.7025 22.0557 11.1213 22.25 11.5625 22.25H20.4381C20.8793 22.25 21.2981 22.0557 21.5831 21.719C21.8681 21.3821 21.9903 20.9369 21.9174 20.5018C21.4412 17.663 18.9747 15.5 16.0002 15.5Z" fill="url(#paint1_linear_9117_29864)"/>
<defs>
<linearGradient id="paint0_linear_9117_29864" x1="1" y1="15.5" x2="31" y2="15.5" gradientUnits="userSpaceOnUse">
<stop stop-color="#FF4308"/>
<stop offset="1" stop-color="#FB8500"/>
</linearGradient>
<linearGradient id="paint1_linear_9117_29864" x1="10.0625" y1="15.125" x2="21.9381" y2="15.125" gradientUnits="userSpaceOnUse">
<stop stop-color="#FF4308"/>
<stop offset="1" stop-color="#FB8500"/>
</linearGradient>
</defs>
</svg>
