<svg width="33" height="32" viewBox="0 0 33 32" fill="none" xmlns="http://www.w3.org/2000/svg">
<g opacity="0.4">
<path d="M26.3942 7.10609C26.6638 6.81841 27.124 6.82562 27.368 7.13534C29.2899 9.57444 30.4366 12.6529 30.4366 15.9991C30.4366 16.0877 30.4358 16.1761 30.4342 16.2643C30.4279 16.613 30.0822 16.8457 29.7511 16.7358C29.7084 16.7217 29.6648 16.7103 29.6206 16.7021C28.3244 16.459 26.9918 16.3325 25.6326 16.3325C23.9358 16.3325 22.2828 16.5294 20.692 16.9027C20.34 16.9854 19.9812 16.7839 19.8703 16.4398C19.5816 15.5438 19.245 14.6693 18.8634 13.8193C18.7135 13.4853 18.8504 13.0905 19.1744 12.9202C21.8604 11.5091 24.238 9.6059 26.1816 7.33285L26.3942 7.10609Z" fill="#141B34"/>
<path d="M6.20261 26.3836C6.48961 26.658 6.9497 26.5976 7.17445 26.2702L7.28804 26.1047C9.90594 22.4283 13.4598 19.552 17.573 17.9008C17.8983 17.7703 18.0787 17.4155 17.9715 17.0815C17.6979 16.2298 17.3775 15.399 17.0133 14.5922C16.8701 14.2748 16.5026 14.132 16.1753 14.2502C13.6209 15.1724 10.8609 15.6759 7.98198 15.6759C6.11245 15.6759 4.29212 15.4635 2.5451 15.0615C2.53442 15.0591 2.52377 15.0564 2.51317 15.0536C2.14929 14.9572 1.78629 15.2143 1.77552 15.591C1.77153 15.73 1.76953 15.8695 1.76953 16.0095C1.76953 20.0894 3.47106 23.7714 6.20261 26.3836Z" fill="#141B34"/>
</g>
<path d="M9.97876 3.16051C9.93079 3.12951 9.93523 3.05803 9.98687 3.03363C11.8419 2.15715 13.9152 1.66699 16.1029 1.66699C19.4388 1.66699 22.5084 2.80655 24.9439 4.71761C25.4759 5.13501 24.9856 5.65408 24.6752 6.01788C22.8835 8.11766 20.6865 9.87463 18.2019 11.173C17.8921 11.3348 17.5135 11.2178 17.3308 10.9199C15.4877 7.91354 12.9563 5.0855 9.97876 3.16051Z" fill="#141B34"/>
<path d="M29.9946 19.549C28.7874 24.2873 25.2198 28.0822 20.6176 29.6079C20.5887 29.6175 20.5604 29.5917 20.5675 29.5621C20.9456 27.8494 21.1036 26.0725 21.1036 24.3206C21.1036 22.7154 20.9563 21.1445 20.6742 19.6207C20.6098 19.2726 20.8192 18.9283 21.164 18.8477C22.6056 18.5103 24.101 18.333 25.6332 18.333C26.8451 18.333 28.0323 18.4437 29.1871 18.6562C29.605 18.7949 30.1384 18.9842 29.9946 19.549Z" fill="#141B34"/>
<path d="M17.9294 30.2411C18.4734 30.1719 18.5159 29.5657 18.6161 29.14C18.9347 27.5901 19.1023 25.9845 19.1023 24.3388C19.1023 23.0005 18.9914 21.6881 18.7783 20.4103C18.7105 20.0035 18.2849 19.7687 17.9061 19.9305C14.2078 21.5112 11.0176 24.2067 8.74589 27.5165C8.53296 27.8268 8.61768 28.2532 8.94332 28.4415C11.0499 29.6595 13.495 30.3565 16.1027 30.3565C16.7215 30.3565 17.3311 30.3172 17.9294 30.2411Z" fill="#141B34"/>
<path d="M2.26614 12.2548C2.17269 12.6006 2.38618 12.95 2.73215 13.0416C4.43443 13.4929 6.22447 13.675 7.98245 13.675C10.4569 13.675 12.8342 13.27 15.0495 12.5241C15.4424 12.3917 15.6043 11.9291 15.3808 11.5796C13.6823 8.92378 11.4687 6.62772 8.87999 4.83164L8.31037 4.4631C8.08331 4.3162 7.78921 4.31995 7.57207 4.48116C5.01991 6.37614 3.11885 9.0999 2.26614 12.2548Z" fill="#141B34"/>
</svg>
