<svg width="24" height="24" viewBox="0 0 24 24" fill="none" xmlns="http://www.w3.org/2000/svg">
<path opacity="0.3" fill-rule="evenodd" clip-rule="evenodd" d="M2 8.53516V15.8384C1.99998 16.3655 1.99997 16.8204 2.03057 17.1949C2.06287 17.5903 2.13419 17.9835 2.32698 18.3619C2.33578 18.3791 2.34474 18.3963 2.35385 18.4134L7.51937 12.2147L2 8.53516ZM3.83366 19.7617C4.15115 19.889 4.47733 19.9425 4.80498 19.9693C5.17952 19.9999 5.63424 19.9999 6.16134 19.9999H17.8385C18.3656 19.9999 18.8205 19.9999 19.195 19.9693C19.5227 19.9425 19.8489 19.889 20.1664 19.7617L14.8071 13.3305L14.2182 13.7232C13.6891 14.077 13.2243 14.3879 12.6991 14.5137C12.2396 14.6238 11.7605 14.6238 11.3009 14.5137C10.7758 14.3879 10.3109 14.077 9.78185 13.7232L9.19299 13.3305L3.83366 19.7617ZM21.6462 18.4133C21.6553 18.3963 21.6642 18.3791 21.673 18.3619C21.8658 17.9835 21.9371 17.5903 21.9694 17.1949C22 16.8203 22 16.3656 22 15.8385V8.53519L16.4807 12.2147L21.6462 18.4133Z" fill="url(#paint0_linear_9117_30274)"/>
<path fill-rule="evenodd" clip-rule="evenodd" d="M6.04195 4H17.719C18.2461 3.99998 18.701 3.99997 19.0755 4.03057C19.4709 4.06287 19.8641 4.13419 20.2425 4.32698C20.8069 4.6146 21.2659 5.07355 21.5535 5.63803C21.6493 5.82597 21.7151 6.01757 21.761 6.21127L14.3376 11.1602C14.3304 11.1649 14.3232 11.1697 14.3161 11.1746L13.1009 11.9847C12.394 12.4559 12.2452 12.5373 12.1136 12.5689C11.9604 12.6056 11.8007 12.6056 11.6475 12.5689C11.5158 12.5373 11.367 12.4559 10.6602 11.9847L9.44496 11.1746C9.43783 11.1697 9.43065 11.1649 9.42344 11.1602L2 6.21125C2.04593 6.01755 2.11171 5.82596 2.20747 5.63803C2.49509 5.07355 2.95403 4.6146 3.51852 4.32698C3.8969 4.13419 4.29012 4.06287 4.68546 4.03057C5.06002 3.99997 5.51483 3.99998 6.04195 4Z" fill="url(#paint1_linear_9117_30274)"/>
<defs>
<linearGradient id="paint0_linear_9117_30274" x1="2" y1="14.2675" x2="22" y2="14.2675" gradientUnits="userSpaceOnUse">
<stop stop-color="#2CE97A"/>
<stop offset="1" stop-color="#D9D314"/>
</linearGradient>
<linearGradient id="paint1_linear_9117_30274" x1="2" y1="8.29821" x2="21.761" y2="8.29821" gradientUnits="userSpaceOnUse">
<stop stop-color="#2CE97A"/>
<stop offset="1" stop-color="#D9D314"/>
</linearGradient>
</defs>
</svg>
