<svg width="34" height="34" viewBox="0 0 34 34" fill="none" xmlns="http://www.w3.org/2000/svg">
<path opacity="0.4" d="M17.2546 2.92969H17.0975C14.0908 2.92967 11.729 2.92966 9.8851 3.17756C7.99558 3.4316 6.4964 3.96282 5.31848 5.14074C4.14057 6.31866 3.60934 7.81784 3.35529 9.70736C3.10739 11.5513 3.10741 13.913 3.10742 16.9198V17.0768C3.10741 20.0837 3.10739 22.4454 3.35529 24.2893C3.60934 26.1787 4.14057 27.678 5.31848 28.8559C6.4964 30.0338 7.99558 30.565 9.8851 30.8191C11.729 31.0669 14.0907 31.0669 17.0975 31.0669H17.2546C20.2614 31.0669 22.6231 31.0669 24.467 30.8191C26.3565 30.565 27.8557 30.0338 29.0336 28.8559C30.2116 27.678 30.7427 26.1787 30.9968 24.2893C31.2447 22.4454 31.2447 20.0837 31.2447 17.0768V16.9198C31.2447 13.913 31.2447 11.5513 30.9968 9.70736C30.7427 7.81784 30.2116 6.31866 29.0336 5.14074C27.8557 3.96282 26.3565 3.4316 24.467 3.17756C22.6231 2.92966 20.2614 2.92967 17.2546 2.92969Z" fill="#04060C"/>
<path d="M24.0384 9.79299L22.5584 9.79297C21.3565 9.79288 20.2879 9.79278 19.4251 9.90879C18.4874 10.0349 17.5405 10.3256 16.7665 11.0995C15.9925 11.8734 15.7018 12.8204 15.5758 13.7581C15.4598 14.6209 15.4598 15.6896 15.4599 16.8914V18.0283H14.4305C13.483 18.0283 12.7148 18.7965 12.7148 19.744C12.7148 20.6916 13.483 21.4596 14.4305 21.4596H15.4599V31.0658C15.9832 31.0675 16.5286 31.0675 17.0971 31.0675H17.2541C17.8226 31.0675 18.3681 31.0675 18.8913 31.0658V21.4596H21.2933C22.2409 21.4596 23.009 20.6916 23.009 19.744C23.009 18.7965 22.2409 18.0283 21.2933 18.0283H18.8913V16.9989C18.8913 15.6564 18.895 14.822 18.9765 14.2154C19.0501 13.6678 19.1588 13.5597 19.1912 13.5275L19.1929 13.5259L19.1945 13.5242C19.2266 13.4919 19.3348 13.3832 19.8823 13.3096C20.489 13.228 21.3233 13.2244 22.6658 13.2244H24.0384C24.986 13.2244 25.7541 12.4562 25.7541 11.5087C25.7541 10.5611 24.986 9.79299 24.0384 9.79299Z" fill="#04060C"/>
</svg>
