<svg width="32" height="32" viewBox="0 0 32 32" fill="none" xmlns="http://www.w3.org/2000/svg">
<path d="M10.8574 10C8.65028 10 6.85742 11.5688 6.85742 13.5C6.85742 15.4313 8.65028 17 10.8574 17C11.0503 17 11.2431 16.975 11.4289 16.95V17.5C11.4289 18.325 10.6574 19 9.71456 19C8.76814 19 8.00028 19.6719 8.00028 20.5C8.00028 21.3281 8.77171 22 9.71456 22C12.5503 22 14.8574 19.9812 14.8574 17.5V13.5C14.8574 11.5688 13.0646 10 10.8574 10ZM21.1431 10C18.9339 10 17.1431 11.5669 17.1431 13.5C17.1431 15.4331 18.9339 17 21.1431 17C21.3389 17 21.5264 16.9734 21.7146 16.9496V17.5C21.7146 18.3269 20.9453 19 20.0003 19C19.0574 19 18.286 19.675 18.286 20.5C18.286 21.325 19.0574 22 20.0003 22C22.836 22 25.1431 19.9812 25.1431 17.5V13.5C25.1431 11.5688 23.3503 10 21.1431 10Z" fill="url(#paint0_linear_9117_29856)"/>
<path opacity="0.2" d="M27.4286 2H4.57143C2.04643 2 0 3.79062 0 6V26C0 28.2094 2.04643 30 4.57143 30H27.4286C29.9536 30 32 28.2094 32 26V6C32 3.79062 29.95 2 27.4286 2ZM14.8571 17.5C14.8571 19.9812 12.55 22 9.71429 22C8.76786 22 8 21.3281 8 20.5C8 19.6719 8.77143 19 9.71429 19C10.6571 19 11.4286 18.325 11.4286 17.5V16.95C11.2429 16.975 11.05 17 10.8571 17C8.65 17 6.85714 15.4312 6.85714 13.5C6.85714 11.5687 8.65 10 10.8571 10C13.0643 10 14.8571 11.5687 14.8571 13.5V17.5ZM25.1429 17.5C25.1429 19.9812 22.8357 22 20 22C19.0571 22 18.2857 21.3312 18.2857 20.5C18.2857 19.6687 19.0536 19 20 19C20.945 19 21.7143 18.3269 21.7143 17.5V16.95C21.5286 16.975 21.3357 17 21.1429 17C18.9336 17 17.1429 15.4331 17.1429 13.5C17.1429 11.5669 18.9357 10 21.1429 10C23.35 10 25.1429 11.5687 25.1429 13.5V17.5Z" fill="url(#paint1_linear_9117_29856)"/>
<defs>
<linearGradient id="paint0_linear_9117_29856" x1="6.85742" y1="16" x2="25.1431" y2="16" gradientUnits="userSpaceOnUse">
<stop stop-color="#FF4308"/>
<stop offset="1" stop-color="#FB8500"/>
</linearGradient>
<linearGradient id="paint1_linear_9117_29856" x1="0" y1="16" x2="32" y2="16" gradientUnits="userSpaceOnUse">
<stop stop-color="#FF4308"/>
<stop offset="1" stop-color="#FB8500"/>
</linearGradient>
</defs>
</svg>
