<svg width="32" height="32" viewBox="0 0 32 32" fill="none" xmlns="http://www.w3.org/2000/svg">
<path opacity="0.2" d="M15.9987 2.3335C14.6003 2.3335 13.398 2.88596 12.1419 3.80491C10.923 4.69667 9.54999 6.01323 7.81756 7.67443L7.77085 7.71923L4.33203 10.8959V18.0754C4.33201 20.5258 4.33199 22.4666 4.53622 23.9855C4.74638 25.5487 5.18921 26.814 6.18702 27.8119C7.18485 28.8096 8.45011 29.2524 10.0133 29.4627C11.5323 29.6668 13.4731 29.6668 15.9234 29.6668H16.0739C18.5243 29.6668 20.4651 29.6668 21.984 29.4627C23.5472 29.2524 24.8126 28.8096 25.8104 27.8119C26.8082 26.814 27.251 25.5487 27.4612 23.9855C27.6654 22.4666 27.6654 20.5258 27.6654 18.0755V10.8959L24.2266 7.71926L24.1799 7.67446C22.4474 6.01324 21.0744 4.69667 19.8555 3.80492C18.5994 2.88596 17.3971 2.3335 15.9987 2.3335Z" fill="url(#paint0_linear_9117_29500)"/>
<path fill-rule="evenodd" clip-rule="evenodd" d="M14.332 22.6667C14.332 21.7461 15.0755 21 15.9927 21C16.9023 21 17.6654 21.7489 17.6654 22.6667C17.6654 23.5844 16.9023 24.3333 15.9927 24.3333C15.0755 24.3333 14.332 23.5872 14.332 22.6667Z" fill="url(#paint1_linear_9117_29500)"/>
<path fill-rule="evenodd" clip-rule="evenodd" d="M13.5196 5.68792C12.4431 6.47548 11.1836 7.67935 9.37904 9.40969L3.58818 14.9624C3.05666 15.472 2.21263 15.4543 1.70298 14.9228C1.19332 14.3913 1.21104 13.5472 1.74255 13.0376L7.60271 7.41848C9.32159 5.77024 10.7081 4.44069 11.9451 3.53573C13.2315 2.59457 14.5023 2 15.9987 2C17.4951 2 18.7659 2.59457 20.0523 3.53573C21.2892 4.44071 22.6758 5.77024 24.3947 7.41849L30.2548 13.0376C30.7863 13.5472 30.804 14.3913 30.2944 14.9228C29.7848 15.4543 28.9407 15.472 28.4092 14.9624L22.6183 9.40971C20.8138 7.67935 19.5543 6.47549 18.4778 5.68792C17.4342 4.92443 16.7114 4.66667 15.9987 4.66667C15.286 4.66667 14.5632 4.92443 13.5196 5.68792Z" fill="url(#paint2_linear_9117_29500)"/>
<defs>
<linearGradient id="paint0_linear_9117_29500" x1="4.33203" y1="16.0002" x2="27.6654" y2="16.0002" gradientUnits="userSpaceOnUse">
<stop stop-color="#FF4308"/>
<stop offset="1" stop-color="#FB8500"/>
</linearGradient>
<linearGradient id="paint1_linear_9117_29500" x1="14.332" y1="22.6667" x2="17.6654" y2="22.6667" gradientUnits="userSpaceOnUse">
<stop stop-color="#FF4308"/>
<stop offset="1" stop-color="#FB8500"/>
</linearGradient>
<linearGradient id="paint2_linear_9117_29500" x1="1.33203" y1="8.66665" x2="30.6653" y2="8.66665" gradientUnits="userSpaceOnUse">
<stop stop-color="#FF4308"/>
<stop offset="1" stop-color="#FB8500"/>
</linearGradient>
</defs>
</svg>
