<svg width="33" height="32" viewBox="0 0 33 32" fill="none" xmlns="http://www.w3.org/2000/svg">
<path opacity="0.4" d="M16.782 2.33301C19.7029 2.33299 21.9972 2.33298 23.7884 2.57379C25.6239 2.82058 27.0803 3.33663 28.2245 4.48089C29.3688 5.62515 29.8848 7.0815 30.1316 8.91704C30.3724 10.7083 30.3724 13.0025 30.3724 15.9234V16.0759C30.3724 18.9969 30.3724 21.2911 30.1316 23.0823C29.8848 24.9178 29.3688 26.3742 28.2245 27.5185C27.0803 28.6627 25.6239 29.1787 23.7884 29.4255C21.9972 29.6663 19.7029 29.6663 16.782 29.6663H16.6295C13.7085 29.6663 11.4143 29.6663 9.62309 29.4255C7.78756 29.1787 6.33121 28.6627 5.18694 27.5185C4.04269 26.3742 3.52664 24.9178 3.27985 23.0823C3.03904 21.2911 3.03905 18.9969 3.03906 16.0759V15.9234C3.03905 13.0025 3.03904 10.7083 3.27985 8.91704C3.52664 7.0815 4.04269 5.62515 5.18694 4.48089C6.33121 3.33663 7.78756 2.82058 9.62309 2.57379C11.4143 2.33298 13.7086 2.33299 16.6295 2.33301H16.782Z" fill="#04060C"/>
<path d="M22.7051 16C22.7051 19.3137 20.0188 22 16.7051 22C13.3914 22 10.7051 19.3137 10.7051 16C10.7051 12.6863 13.3914 10 16.7051 10C20.0188 10 22.7051 12.6863 22.7051 16Z" fill="#04060C"/>
<path fill-rule="evenodd" clip-rule="evenodd" d="M25.3835 8.66634C25.3835 9.40271 24.7892 9.99967 24.0561 9.99967H24.0441C23.3111 9.99967 22.7168 9.40271 22.7168 8.66634C22.7168 7.92995 23.3111 7.33301 24.0441 7.33301H24.0561C24.7892 7.33301 25.3835 7.92997 25.3835 8.66634Z" fill="#04060C"/>
</svg>
