<svg width="33" height="32" viewBox="0 0 33 32" fill="none" xmlns="http://www.w3.org/2000/svg">
<path opacity="0.4" d="M16.6765 2.33301H16.524C13.6031 2.33299 11.3088 2.33298 9.51762 2.57379C7.68209 2.82058 6.22574 3.33662 5.08147 4.48089C3.93722 5.62515 3.42117 7.0815 3.17438 8.91704C2.93357 10.7083 2.93358 13.0025 2.93359 15.9234V16.0759C2.93358 18.9969 2.93357 21.2911 3.17438 23.0823C3.42117 24.9178 3.93722 26.3742 5.08147 27.5185C6.22574 28.6627 7.68209 29.1787 9.51762 29.4255C11.3088 29.6663 13.6031 29.6663 16.524 29.6663H16.6765C19.5975 29.6663 21.8917 29.6663 23.6829 29.4255C25.5184 29.1787 26.9748 28.6627 28.1191 27.5185C29.2633 26.3742 29.7793 24.9178 30.0261 23.0823C30.2669 21.2911 30.2669 18.9969 30.2669 16.0759V15.9234C30.2669 13.0025 30.2669 10.7083 30.0261 8.91704C29.7793 7.0815 29.2633 5.62515 28.1191 4.48089C26.9748 3.33662 25.5184 2.82058 23.6829 2.57379C21.8917 2.33298 19.5975 2.33299 16.6765 2.33301Z" fill="#141B34"/>
<path fill-rule="evenodd" clip-rule="evenodd" d="M9.93385 12.667C10.6702 12.667 11.2672 13.2639 11.2672 14.0003V22.667C11.2672 23.4034 10.6702 24.0003 9.93385 24.0003C9.19748 24.0003 8.60052 23.4034 8.60052 22.667V14.0003C8.60052 13.2639 9.19748 12.667 9.93385 12.667ZM16.4824 12.7842C16.2731 12.3219 15.8077 12.0003 15.2672 12.0003C14.5308 12.0003 13.9339 12.5973 13.9339 13.3337V22.667C13.9339 23.4034 14.5308 24.0003 15.2672 24.0003C16.0036 24.0003 16.6005 23.4034 16.6005 22.667V17.3337C16.6005 15.8609 17.7944 14.667 19.2672 14.667C20.74 14.667 21.9339 15.8609 21.9339 17.3337V22.667C21.9339 23.4034 22.5308 24.0003 23.2672 24.0003C24.0036 24.0003 24.6005 23.4034 24.6005 22.667V17.3337C24.6005 14.3882 22.2127 12.0003 19.2672 12.0003C18.2465 12.0003 17.2929 12.287 16.4824 12.7842ZM9.94428 11.0003C10.8647 11.0003 11.6109 10.2541 11.6109 9.33366C11.6109 8.41318 10.8647 7.66699 9.94428 7.66699H9.93229C9.01183 7.66699 8.26562 8.41318 8.26562 9.33366C8.26562 10.2541 9.01183 11.0003 9.93229 11.0003H9.94428Z" fill="#141B34"/>
</svg>
