<svg width="25" height="24" viewBox="0 0 25 24" fill="none" xmlns="http://www.w3.org/2000/svg">
<path opacity="0.3" d="M7.72108 11.8209C7.43178 12.1708 7.14256 12.5207 6.85581 12.8722C8.15575 14.9956 9.93655 16.7091 12.1219 17.9335C12.4059 17.6527 12.6907 17.3727 12.9754 17.0926C13.5696 16.5081 14.1638 15.9236 14.7517 15.3331C15.0751 15.0082 15.3998 14.6821 15.806 14.4931C16.16 14.3283 16.5476 14.2488 16.9378 14.2607C17.3857 14.2745 17.8125 14.4464 18.2378 14.6175C18.4985 14.7225 18.7623 14.8232 19.0266 14.9241C19.6258 15.1529 20.2274 15.3825 20.7997 15.6641C21.0539 15.7891 21.3127 15.9454 21.5395 16.1842C21.8713 16.5335 22.0951 16.9711 22.184 17.4446C22.2448 17.7683 22.22 18.0696 22.1725 18.3489C22.0561 19.0337 21.8746 19.7118 21.6939 20.3869C21.6175 20.6724 21.5413 20.9573 21.4702 21.2419C21.3589 21.6871 20.9589 21.9995 20.5 21.9995C17.5498 21.9995 14.4693 21.4277 11.8381 20.0464C8.83249 18.5404 6.39497 16.2012 4.77669 13.2756C3.17625 10.4966 2.5 7.18091 2.5 3.99952C2.5 3.54067 2.81228 3.14069 3.25743 3.02939L5.25684 2.52947C5.58947 2.44629 5.89169 2.37071 6.15037 2.32675C6.42965 2.27929 6.73097 2.25446 7.05463 2.31523C7.52809 2.40413 7.96578 2.62793 8.31506 2.95971C8.55382 3.18651 8.71012 3.44531 8.83516 3.69952C9.13546 4.31001 9.38004 4.95183 9.62369 5.59122C9.73198 5.87542 9.8401 6.15913 9.95284 6.4394C10.1033 6.81338 10.2545 7.18939 10.2817 7.58779C10.3054 7.93542 10.2561 8.28418 10.1371 8.61166C10.0007 8.98697 9.75127 9.30641 9.50317 9.62411C8.92326 10.3667 8.32203 11.094 7.72108 11.8209Z" fill="url(#paint0_linear_9117_30262)"/>
<path d="M13.6105 2.0062C13.0616 1.94522 12.5672 2.34077 12.5062 2.88968C12.4452 3.43858 12.8408 3.93299 13.3897 3.99397C15.1935 4.19436 16.8755 5.00213 18.1597 6.28465C19.4438 7.56717 20.2537 9.2482 20.4563 11.0518C20.518 11.6006 21.0129 11.9955 21.5618 11.9338C22.1106 11.8722 22.5055 11.3773 22.4438 10.8284C22.1905 8.57399 21.1782 6.47269 19.573 4.86954C17.9678 3.2664 15.8653 2.25669 13.6105 2.0062Z" fill="url(#paint1_linear_9117_30262)"/>
<path d="M13.6917 6.01857C13.1496 5.91282 12.6245 6.26651 12.5187 6.80857C12.4129 7.35064 12.7666 7.8758 13.3087 7.98156C14.0901 8.13401 14.8082 8.51617 15.3711 9.07911C15.9341 9.64205 16.3162 10.3602 16.4687 11.1416C16.5745 11.6836 17.0996 12.0373 17.6417 11.9316C18.1837 11.8258 18.5374 11.3007 18.4317 10.7586C18.203 9.58649 17.6298 8.50931 16.7854 7.6649C15.9409 6.82048 14.8638 6.24725 13.6917 6.01857Z" fill="url(#paint2_linear_9117_30262)"/>
<defs>
<linearGradient id="paint0_linear_9117_30262" x1="2.5" y1="12.1394" x2="22.22" y2="12.1394" gradientUnits="userSpaceOnUse">
<stop stop-color="#2CE97A"/>
<stop offset="1" stop-color="#D9D314"/>
</linearGradient>
<linearGradient id="paint1_linear_9117_30262" x1="12.5" y1="6.97008" x2="22.4502" y2="6.97008" gradientUnits="userSpaceOnUse">
<stop stop-color="#2CE97A"/>
<stop offset="1" stop-color="#D9D314"/>
</linearGradient>
<linearGradient id="paint2_linear_9117_30262" x1="12.5" y1="8.97507" x2="18.4504" y2="8.97507" gradientUnits="userSpaceOnUse">
<stop stop-color="#2CE97A"/>
<stop offset="1" stop-color="#D9D314"/>
</linearGradient>
</defs>
</svg>
