<svg width="32" height="32" viewBox="0 0 32 32" fill="none" xmlns="http://www.w3.org/2000/svg">
<path opacity="0.2" fill-rule="evenodd" clip-rule="evenodd" d="M2.05063 26.7569C1.95015 27.0121 1.85532 27.2527 1.77421 27.4732C1.5061 28.2014 1.09384 28.9401 1.5873 29.6802C1.85932 30.0881 2.31734 30.3332 2.80768 30.3332H16.0064C24.1065 30.3332 30.673 23.7666 30.673 15.6666C30.673 7.56645 24.1065 1 16.0064 1C7.90628 1 1.33984 7.56645 1.33984 15.6666C1.33984 18.0059 1.88848 20.221 2.86567 22.1869C3.34785 23.4635 2.6111 25.3339 2.05063 26.7569Z" fill="url(#paint0_linear_9117_29848)"/>
<path fill-rule="evenodd" clip-rule="evenodd" d="M10.1325 12.7337C10.1325 13.5438 9.47588 14.2004 8.66588 14.2004C7.85587 14.2004 7.19922 13.5438 7.19922 12.7337C7.19922 11.9237 7.85587 11.2671 8.66588 11.2671C9.47588 11.2671 10.1325 11.9237 10.1325 12.7337ZM10.1325 18.6004C10.1325 19.4104 9.47588 20.067 8.66588 20.067C7.85587 20.067 7.19922 19.4104 7.19922 18.6004C7.19922 17.7903 7.85587 17.1337 8.66588 17.1337C9.47588 17.1337 10.1325 17.7903 10.1325 18.6004ZM11.5992 12.7337C11.5992 11.9237 12.2558 11.2671 13.0659 11.2671H23.3325C24.1425 11.2671 24.7991 11.9237 24.7991 12.7337C24.7991 13.5438 24.1425 14.2004 23.3325 14.2004H13.0659C12.2558 14.2004 11.5992 13.5438 11.5992 12.7337ZM11.5992 18.6004C11.5992 17.7903 12.2558 17.1337 13.0659 17.1337H23.3325C24.1425 17.1337 24.7991 17.7903 24.7991 18.6004C24.7991 19.4104 24.1425 20.067 23.3325 20.067H13.0659C12.2558 20.067 11.5992 19.4104 11.5992 18.6004Z" fill="url(#paint1_linear_9117_29848)"/>
<defs>
<linearGradient id="paint0_linear_9117_29848" x1="1.33984" y1="15.6666" x2="30.673" y2="15.6666" gradientUnits="userSpaceOnUse">
<stop stop-color="#FF4308"/>
<stop offset="1" stop-color="#FB8500"/>
</linearGradient>
<linearGradient id="paint1_linear_9117_29848" x1="7.19922" y1="15.6671" x2="24.7991" y2="15.6671" gradientUnits="userSpaceOnUse">
<stop stop-color="#FF4308"/>
<stop offset="1" stop-color="#FB8500"/>
</linearGradient>
</defs>
</svg>
