<svg width="160" height="160" viewBox="0 0 160 160" fill="none" xmlns="http://www.w3.org/2000/svg">
<g clip-path="url(#clip0_9340_92)">
<path d="M80.0001 48C74.5601 48 48.9601 52.08 48.0801 79.04C61.8401 75.84 72.5601 64.88 75.2801 50.96C79.5201 60.16 90.9601 73.36 110.72 71.76C107.12 58.08 94.8001 48 80.0001 48Z" fill="url(#paint0_linear_9340_92)"/>
<path d="M60 92C63.3137 92 66 89.3137 66 86C66 82.6863 63.3137 80 60 80C56.6863 80 54 82.6863 54 86C54 89.3137 56.6863 92 60 92Z" fill="url(#paint1_linear_9340_92)"/>
<path d="M100 92C103.314 92 106 89.3137 106 86C106 82.6863 103.314 80 100 80C96.6863 80 94 82.6863 94 86C94 89.3137 96.6863 92 100 92Z" fill="url(#paint2_linear_9340_92)"/>
<path d="M128 80C128 53.52 106.48 32 80 32C53.52 32 32 53.52 32 80C27.6 80 24 83.6 24 88V104C24 108.4 27.6 112 32 112H40V80C40 57.92 57.92 40 80 40C102.08 40 120 57.92 120 80V120H72V128H120C124.4 128 128 124.4 128 120V112C132.4 112 136 108.4 136 104V88C136 83.6 132.4 80 128 80Z" fill="url(#paint3_linear_9340_92)"/>
</g>
<defs>
<linearGradient id="paint0_linear_9340_92" x1="48.0801" y1="63.52" x2="110.72" y2="63.52" gradientUnits="userSpaceOnUse">
<stop stop-color="#2CE97A"/>
<stop offset="1" stop-color="#D9D314"/>
</linearGradient>
<linearGradient id="paint1_linear_9340_92" x1="54" y1="86" x2="66" y2="86" gradientUnits="userSpaceOnUse">
<stop stop-color="#2CE97A"/>
<stop offset="1" stop-color="#D9D314"/>
</linearGradient>
<linearGradient id="paint2_linear_9340_92" x1="94" y1="86" x2="106" y2="86" gradientUnits="userSpaceOnUse">
<stop stop-color="#2CE97A"/>
<stop offset="1" stop-color="#D9D314"/>
</linearGradient>
<linearGradient id="paint3_linear_9340_92" x1="24" y1="80" x2="136" y2="80" gradientUnits="userSpaceOnUse">
<stop stop-color="#2CE97A"/>
<stop offset="1" stop-color="#D9D314"/>
</linearGradient>
<clipPath id="clip0_9340_92">
<rect width="160" height="160" fill="white"/>
</clipPath>
</defs>
</svg>
