<svg width="92" height="93" viewBox="0 0 92 93" fill="none" xmlns="http://www.w3.org/2000/svg">
<rect y="0.0812988" width="92" height="92" rx="4" fill="white" fill-opacity="0.1"/>
<path d="M68.275 31.5345L58 38.622V53.3783L68.275 60.4555C70.2625 61.8252 73 60.4283 73 58.0377V33.9533C73 31.572 70.2719 30.1686 68.275 31.5345ZM44.5 43.7502H39.1656V38.4158C39.1656 37.2533 38.2469 36.2502 37 36.2502C35.7531 36.2502 34.75 37.2533 34.75 38.4158V43.7502H29.4156C28.2569 43.7502 27.25 44.7533 27.25 46.0002C27.25 47.2433 28.2559 48.1658 29.4156 48.1658H34.75V53.4158C34.75 54.747 35.7531 55.7502 37 55.7502C38.2431 55.7502 39.1656 54.7433 39.1656 53.5845V48.1658H44.5C45.7469 48.1658 46.75 47.247 46.75 46.0002C46.75 44.7533 45.7469 43.7502 44.5 43.7502Z" fill="url(#paint0_linear_9117_31646)"/>
<path opacity="0.4" d="M50.5 28.0002H23.5C21.0147 28.0002 19 30.0149 19 32.5002V59.5002C19 61.9846 21.0147 64.0002 23.5 64.0002H50.5C52.9853 64.0002 55 61.9856 55 59.5002V32.5002C55 30.0149 52.9844 28.0002 50.5 28.0002ZM44.5 48.1659H39.1656V53.4159C39.1656 54.7471 38.2469 55.7502 37 55.7502C35.7559 55.7502 34.8344 54.7434 34.8344 53.5846V48.1659H29.4156C28.2559 48.1659 27.25 47.2471 27.25 46.0002C27.25 44.7571 28.2569 43.8346 29.4156 43.8346H34.75V38.4159C34.75 37.2534 35.7531 36.2502 37 36.2502C38.2469 36.2502 39.1656 37.2571 39.1656 38.4159V43.7502H44.5C45.7469 43.7502 46.75 44.7534 46.75 46.0002C46.75 47.2471 45.7469 48.1659 44.5 48.1659Z" fill="url(#paint1_linear_9117_31646)"/>
<defs>
<linearGradient id="paint0_linear_9117_31646" x1="27.25" y1="45.9967" x2="73" y2="45.9967" gradientUnits="userSpaceOnUse">
<stop stop-color="#2CE97A"/>
<stop offset="1" stop-color="#D9D314"/>
</linearGradient>
<linearGradient id="paint1_linear_9117_31646" x1="19" y1="46.0002" x2="55" y2="46.0002" gradientUnits="userSpaceOnUse">
<stop stop-color="#2CE97A"/>
<stop offset="1" stop-color="#D9D314"/>
</linearGradient>
</defs>
</svg>
