<svg width="58" height="58" viewBox="0 0 58 58" fill="none" xmlns="http://www.w3.org/2000/svg">
<path opacity="0.4" d="M53.1644 19.4609V38.5391C53.1758 41.7699 51.9006 44.8727 49.6198 47.1633C47.3391 49.4539 44.2401 50.7443 41.0061 50.75H17.0547C13.8151 50.7557 10.7061 49.4739 8.41328 47.1874C6.12046 44.9008 4.83203 41.7971 4.83203 38.5605V19.4609C4.8338 18.0396 5.08837 16.6299 5.58387 15.2976C7.32983 10.4696 11.9164 7.25186 17.0547 7.25H40.9417C46.1427 7.2471 50.7738 10.5383 52.477 15.4478C52.9496 16.7323 53.1825 18.0925 53.1644 19.4609Z" fill="url(#paint0_linear_9117_29259)"/>
<path d="M52.4771 15.4693L52.2408 15.6624C47.7942 19.1175 33.4019 30.6846 33.4019 30.6846C30.8993 32.7178 27.3121 32.7178 24.8095 30.6846C24.8095 30.6846 10.5031 19.139 6.05657 15.6839L5.58398 15.3191C7.32277 10.4826 11.9109 7.25511 17.0549 7.25H40.9418C46.1484 7.25026 50.7813 10.5513 52.4771 15.4693Z" fill="url(#paint1_linear_9117_29259)"/>
<defs>
<linearGradient id="paint0_linear_9117_29259" x1="4.83203" y1="29" x2="53.1654" y2="29" gradientUnits="userSpaceOnUse">
<stop stop-color="#FF4308"/>
<stop offset="1" stop-color="#FB8500"/>
</linearGradient>
<linearGradient id="paint1_linear_9117_29259" x1="5.58398" y1="19.7297" x2="52.4771" y2="19.7297" gradientUnits="userSpaceOnUse">
<stop stop-color="#FF4308"/>
<stop offset="1" stop-color="#FB8500"/>
</linearGradient>
</defs>
</svg>
