<svg width="54" height="48" viewBox="0 0 54 48" fill="none" xmlns="http://www.w3.org/2000/svg">
<path d="M49.275 9.53455L39 16.622V31.3783L49.275 38.4555C51.2625 39.8252 54 38.4283 54 36.0377V11.9533C54 9.57205 51.2719 8.16861 49.275 9.53455ZM25.5 21.7502H20.1656V16.4158C20.1656 15.2533 19.2469 14.2502 18 14.2502C16.7531 14.2502 15.75 15.2533 15.75 16.4158V21.7502H10.4156C9.25687 21.7502 8.25 22.7533 8.25 24.0002C8.25 25.2433 9.25594 26.1658 10.4156 26.1658H15.75V31.4158C15.75 32.747 16.7531 33.7502 18 33.7502C19.2431 33.7502 20.1656 32.7433 20.1656 31.5845V26.1658H25.5C26.7469 26.1658 27.75 25.247 27.75 24.0002C27.75 22.7533 26.7469 21.7502 25.5 21.7502Z" fill="url(#paint0_linear_9117_29294)"/>
<path opacity="0.4" d="M31.5 6.00024H4.5C2.01469 6.00024 0 8.01493 0 10.5002V37.5002C0 39.9846 2.01469 42.0002 4.5 42.0002H31.5C33.9853 42.0002 36 39.9856 36 37.5002V10.5002C36 8.01493 33.9844 6.00024 31.5 6.00024ZM25.5 26.1659H20.1656V31.4159C20.1656 32.7471 19.2469 33.7502 18 33.7502C16.7559 33.7502 15.8344 32.7434 15.8344 31.5846V26.1659H10.4156C9.25594 26.1659 8.25 25.2471 8.25 24.0002C8.25 22.7571 9.25688 21.8346 10.4156 21.8346H15.75V16.4159C15.75 15.2534 16.7531 14.2502 18 14.2502C19.2469 14.2502 20.1656 15.2571 20.1656 16.4159V21.7502H25.5C26.7469 21.7502 27.75 22.7534 27.75 24.0002C27.75 25.2471 26.7469 26.1659 25.5 26.1659Z" fill="url(#paint1_linear_9117_29294)"/>
<defs>
<linearGradient id="paint0_linear_9117_29294" x1="8.25" y1="23.9967" x2="54" y2="23.9967" gradientUnits="userSpaceOnUse">
<stop stop-color="#FF4308"/>
<stop offset="1" stop-color="#FB8500"/>
</linearGradient>
<linearGradient id="paint1_linear_9117_29294" x1="0" y1="24.0002" x2="36" y2="24.0002" gradientUnits="userSpaceOnUse">
<stop stop-color="#FF4308"/>
<stop offset="1" stop-color="#FB8500"/>
</linearGradient>
</defs>
</svg>
