<svg width="58" height="56" viewBox="0 0 58 56" fill="none" xmlns="http://www.w3.org/2000/svg">
<path fill-rule="evenodd" clip-rule="evenodd" d="M4 50.3673C4 48.9131 5.16407 47.7344 6.6 47.7344H53.4C54.836 47.7344 56 48.9131 56 50.3673C56 51.8214 54.836 53.0001 53.4 53.0001H6.6C5.16407 53.0001 4 51.8214 4 50.3673Z" fill="white"/>
<path fill-rule="evenodd" clip-rule="evenodd" d="M21.3254 27.3296H38.6778C40.634 27.3296 42.2455 27.3296 43.5312 27.4575C44.8574 27.5895 46.0909 27.8759 47.1642 28.6276C48.318 29.4359 49.2132 30.568 49.7358 31.8858C50.2231 33.1143 50.2189 34.3941 50.0437 35.7253C49.8739 37.0136 49.5057 38.5907 49.0598 40.5011L49.0174 40.682C48.5747 42.5795 48.2148 44.1208 47.817 45.3585C47.4044 46.6421 46.9086 47.7424 46.1218 48.7115C45.2207 49.8221 44.0907 50.7209 42.811 51.347C41.6956 51.8928 40.5204 52.1256 39.185 52.2356C37.8959 52.342 36.3206 52.342 34.3784 52.342H25.625C23.6825 52.342 22.1074 52.342 20.8184 52.2356C19.483 52.1256 18.3078 51.8928 17.1922 51.347C15.9125 50.7209 14.7825 49.8221 13.8814 48.7115C13.0947 47.7424 12.599 46.6421 12.1863 45.3585C11.7885 44.1208 11.4287 42.5795 10.9858 40.6823L10.9435 40.5011C10.4975 38.5904 10.1293 37.0136 9.95969 35.7253C9.78443 34.3941 9.78019 33.1143 10.2675 31.8858C10.7901 30.568 11.6851 29.4359 12.8391 28.6276C13.9123 27.8759 15.1458 27.5895 16.4722 27.4575C17.7578 27.3296 19.3691 27.3296 21.3254 27.3296ZM27.4016 35.2282C26.3246 35.2282 25.4516 36.1124 25.4516 37.2029C25.4516 38.2935 26.3246 39.1776 27.4016 39.1776H32.6016C33.6785 39.1776 34.5516 38.2935 34.5516 37.2029C34.5516 36.1124 33.6785 35.2282 32.6016 35.2282H27.4016Z" fill="white"/>
<g opacity="0.6">
<path fill-rule="evenodd" clip-rule="evenodd" d="M38.7916 25.156C34.7161 19.1516 25.235 19.396 21.1898 25.1789C20.5673 26.0688 19.3502 26.2792 18.4714 25.6489C17.5926 25.0186 17.3849 23.7861 18.0074 22.8962C23.5221 15.0125 36.2985 14.5109 42.0055 22.9191C42.6157 23.8177 42.3906 25.0473 41.5032 25.6649C40.6155 26.2826 39.4016 26.0549 38.7916 25.156Z" fill="white"/>
<path fill-rule="evenodd" clip-rule="evenodd" d="M29.9996 4.94933C28.2046 4.94933 26.7496 6.4228 26.7496 8.24044C26.7496 10.0581 28.2046 11.5315 29.9996 11.5315C31.7944 11.5315 33.2496 10.0581 33.2496 8.24044C33.2496 6.4228 31.7944 4.94933 29.9996 4.94933ZM22.8496 8.24044C22.8496 4.24166 26.0507 1 29.9996 1C33.9482 1 37.1496 4.24166 37.1496 8.24044C37.1496 12.2392 33.9482 15.4809 29.9996 15.4809C26.0507 15.4809 22.8496 12.2392 22.8496 8.24044Z" fill="white"/>
</g>
</svg>
