<svg width="58" height="58" viewBox="0 0 58 58" fill="none" xmlns="http://www.w3.org/2000/svg">
<path d="M34.069 6.28328L32.4849 4.09749C32.2643 3.79314 32.1542 3.64099 31.986 3.56243C31.818 3.48389 31.6398 3.49626 31.2833 3.52104C27.2221 3.8032 23.5216 5.39557 20.601 7.87856C20.4468 8.00969 20.5413 8.24836 20.7434 8.26026C23.0865 8.39819 24.3334 9.69995 25.6992 11.1438C27.8101 13.3756 29.47 13.1911 30.2482 12.7798C30.5662 12.6117 30.6248 12.4927 30.6449 12.4517L30.6463 12.4488C30.7098 12.3205 30.7364 12.1834 30.831 11.6641C30.9101 11.2302 31.0475 10.4854 31.5234 9.76618C32.0268 9.00564 32.7783 8.45117 33.7691 8.05831C34.1823 7.89455 34.3094 7.66527 34.3552 7.44908C34.4124 7.17968 34.3662 6.75099 34.069 6.28328Z" fill="url(#paint0_linear_9117_29271)"/>
<path d="M36.338 39.5656C36.6125 39.7955 36.7496 39.9106 36.9231 39.9479C37.0966 39.9852 37.2602 39.9393 37.5878 39.8478C43.4861 38.1956 48.1948 33.6945 50.1383 27.9212C50.3932 27.1635 50.5208 26.7848 50.3062 26.4862C50.0917 26.1877 49.67 26.1877 48.8265 26.1877H48.1159C46.9218 26.1877 46.268 26.6283 45.3092 27.2885L45.275 27.3119C44.2835 27.9946 42.8355 28.9916 40.5965 28.5436C37.6459 27.9532 36.235 28.1102 35.6267 28.3914C35.3999 28.4963 35.3089 28.6069 35.2446 28.7364C35.1593 28.9085 35.074 29.2227 35.074 29.7763L35.0742 29.9846C35.0747 31.2061 35.0752 32.1291 34.8657 32.9708C34.6475 33.8468 34.2138 34.5915 33.6801 35.5085L33.5888 35.665C33.2423 36.2614 33.1762 36.5916 33.1831 36.7452C33.1855 36.7971 33.1958 36.8413 33.2316 36.9029C33.2732 36.9739 33.3769 37.1127 33.6268 37.2981C33.6555 37.3192 33.6834 37.3411 33.7104 37.3641L36.338 39.5656Z" fill="url(#paint1_linear_9117_29271)"/>
<path opacity="0.4" d="M37.4589 5.06432C37.2257 4.55654 37.1091 4.30265 37.2114 4.18617C37.3134 4.06971 37.5583 4.14526 38.0481 4.29641C45.607 6.62936 51.1001 13.6748 51.1001 22.0038C51.1001 22.337 50.826 22.6015 50.493 22.6015H48.1134C45.7876 22.6015 44.3459 23.5956 43.356 24.2782L43.2753 24.3338C42.3167 24.9937 41.98 25.1638 41.2969 25.0269C38.2741 24.4221 35.8523 24.3354 34.1208 25.1361C33.1779 25.5719 32.4724 26.2552 32.0325 27.1402C31.6139 27.9832 31.4875 28.9045 31.4875 29.7762C31.4875 31.2998 31.4746 31.7454 31.3855 32.1034C31.3054 32.425 31.1549 32.7148 30.4883 33.8622C30.0266 34.6561 29.5473 35.7165 29.6002 36.904C29.6575 38.2009 30.3248 39.2984 31.4442 40.1444C31.5902 40.2668 31.4978 40.5012 31.3078 40.4882C21.6757 39.8329 14.0654 31.8076 14.0654 22.0038C14.0654 18.7134 14.9227 15.6233 16.426 12.945C16.7157 12.4288 16.8605 12.1708 17.1401 12.0071C17.4197 11.8434 17.7415 11.8434 18.3852 11.8434H20.5788C21.3302 11.8964 21.7121 12.1478 23.0942 13.609C25.999 16.6799 29.3548 17.3069 31.9204 15.9507C32.8484 15.4602 33.4721 14.8153 33.8556 14.0414C34.1602 13.4265 34.2723 12.7813 34.3353 12.4182L34.3549 12.3074C34.4304 11.8929 34.4746 11.7993 34.5098 11.7462C34.5212 11.7285 34.6177 11.5785 35.0873 11.3924C36.5925 10.7956 37.5583 9.60981 37.8589 8.19451C38.0883 7.11454 37.9057 6.03726 37.4589 5.06432Z" fill="url(#paint2_linear_9117_29271)"/>
<path fill-rule="evenodd" clip-rule="evenodd" d="M17.5705 3.60246C18.4904 4.54861 18.4691 6.06135 17.523 6.98122C13.5407 10.8529 11.0786 16.2366 11.0786 22.1909C11.0786 33.94 20.6878 43.4983 32.5831 43.4983C38.4512 43.4983 43.7633 41.1727 47.6432 37.4006C48.5894 36.4806 50.1021 36.5022 51.022 37.4481C51.9419 38.3943 51.9207 39.907 50.9745 40.8269C46.2346 45.4351 39.7393 48.2771 32.5831 48.2771V50.6665H34.9725C36.2921 50.6665 37.3619 51.7362 37.3619 53.0558C37.3619 54.3755 36.2921 55.4452 34.9725 55.4452H25.4149C24.0953 55.4452 23.0255 54.3755 23.0255 53.0558C23.0255 51.7362 24.0953 50.6665 25.4149 50.6665H27.8043V47.8467C15.5823 45.6174 6.2998 34.993 6.2998 22.1909C6.2998 14.8875 9.32676 8.28477 14.1918 3.55488C15.1379 2.63499 16.6507 2.6563 17.5705 3.60246Z" fill="url(#paint3_linear_9117_29271)"/>
<defs>
<linearGradient id="paint0_linear_9117_29271" x1="20.5244" y1="8.26841" x2="34.3765" y2="8.26841" gradientUnits="userSpaceOnUse">
<stop stop-color="#FF4308"/>
<stop offset="1" stop-color="#FB8500"/>
</linearGradient>
<linearGradient id="paint1_linear_9117_29271" x1="33.1826" y1="33.0743" x2="50.415" y2="33.0743" gradientUnits="userSpaceOnUse">
<stop stop-color="#FF4308"/>
<stop offset="1" stop-color="#FB8500"/>
</linearGradient>
<linearGradient id="paint2_linear_9117_29271" x1="14.0654" y1="22.3091" x2="51.1001" y2="22.3091" gradientUnits="userSpaceOnUse">
<stop stop-color="#FF4308"/>
<stop offset="1" stop-color="#FB8500"/>
</linearGradient>
<linearGradient id="paint3_linear_9117_29271" x1="6.2998" y1="29.1619" x2="51.6983" y2="29.1619" gradientUnits="userSpaceOnUse">
<stop stop-color="#FF4308"/>
<stop offset="1" stop-color="#FB8500"/>
</linearGradient>
</defs>
</svg>
