<svg width="32" height="32" viewBox="0 0 32 32" fill="none" xmlns="http://www.w3.org/2000/svg">
<path opacity="0.2" d="M30.811 12.3041C30.8034 11.9092 30.7997 11.7118 30.6731 11.5876C30.5463 11.4634 30.3472 11.4634 29.9487 11.4634H2.05009C1.65168 11.4634 1.45248 11.4634 1.32586 11.5876C1.19921 11.7118 1.19542 11.9092 1.18784 12.3041C1.166 13.4414 1.166 14.6975 1.16602 16.0837V16.2493C1.166 19.4196 1.16599 21.9096 1.42736 23.8538C1.69521 25.846 2.25532 27.4267 3.49726 28.6687C4.73922 29.9106 6.31989 30.4707 8.31213 30.7386C10.2563 30.9999 12.7463 30.9999 15.9166 30.9999H16.0822C19.2525 30.9999 21.7426 30.9999 23.6867 30.7386C25.6789 30.4707 27.2596 29.9106 28.5016 28.6687C29.7435 27.4267 30.3036 25.846 30.5715 23.8538C30.8328 21.9096 30.8328 19.4196 30.8328 16.2493V16.0837C30.8328 14.6976 30.8328 13.4414 30.811 12.3041Z" fill="url(#paint0_linear_9117_29829)"/>
<path d="M16.084 1.3335H15.9185C12.7482 1.33348 10.2581 1.33347 8.31394 1.59484C6.32171 1.86269 4.74103 2.4228 3.49908 3.66474C2.25714 4.9067 1.69703 6.48737 1.42917 8.47961C1.38819 8.78445 1.3677 8.93687 1.43071 9.05854C1.46214 9.11924 1.51104 9.17516 1.56702 9.2144C1.67921 9.29306 1.83816 9.29306 2.15602 9.29306H29.8465C30.1642 9.29306 30.3233 9.29306 30.4354 9.2144C30.4915 9.17516 30.5404 9.11924 30.5718 9.05854C30.6347 8.93687 30.6143 8.78445 30.5732 8.47961C30.3055 6.48737 29.7453 4.9067 28.5033 3.66474C27.2614 2.4228 25.6808 1.86269 23.6885 1.59484C21.7444 1.33347 19.2542 1.33348 16.084 1.3335Z" fill="url(#paint1_linear_9117_29829)"/>
<path fill-rule="evenodd" clip-rule="evenodd" d="M8.33203 17.3335C8.33203 16.7812 8.77975 16.3335 9.33203 16.3335H10.6654C11.2176 16.3335 11.6654 16.7812 11.6654 17.3335C11.6654 17.8858 11.2176 18.3335 10.6654 18.3335H9.33203C8.77975 18.3335 8.33203 17.8858 8.33203 17.3335ZM13.6654 17.3335C13.6654 16.7812 14.1131 16.3335 14.6654 16.3335H22.6654C23.2176 16.3335 23.6654 16.7812 23.6654 17.3335C23.6654 17.8858 23.2176 18.3335 22.6654 18.3335H14.6654C14.1131 18.3335 13.6654 17.8858 13.6654 17.3335ZM8.33203 22.6668C8.33203 22.1146 8.77975 21.6668 9.33203 21.6668H10.6654C11.2176 21.6668 11.6654 22.1146 11.6654 22.6668C11.6654 23.2191 11.2176 23.6668 10.6654 23.6668H9.33203C8.77975 23.6668 8.33203 23.2191 8.33203 22.6668ZM13.6654 22.6668C13.6654 22.1146 14.1131 21.6668 14.6654 21.6668H22.6654C23.2176 21.6668 23.6654 22.1146 23.6654 22.6668C23.6654 23.2191 23.2176 23.6668 22.6654 23.6668H14.6654C14.1131 23.6668 13.6654 23.2191 13.6654 22.6668Z" fill="url(#paint2_linear_9117_29829)"/>
<defs>
<linearGradient id="paint0_linear_9117_29829" x1="1.16602" y1="21.2316" x2="30.8328" y2="21.2316" gradientUnits="userSpaceOnUse">
<stop stop-color="#FF4308"/>
<stop offset="1" stop-color="#FB8500"/>
</linearGradient>
<linearGradient id="paint1_linear_9117_29829" x1="1.39062" y1="5.31328" x2="30.6118" y2="5.31328" gradientUnits="userSpaceOnUse">
<stop stop-color="#FF4308"/>
<stop offset="1" stop-color="#FB8500"/>
</linearGradient>
<linearGradient id="paint2_linear_9117_29829" x1="8.33203" y1="20.0002" x2="23.6654" y2="20.0002" gradientUnits="userSpaceOnUse">
<stop stop-color="#FF4308"/>
<stop offset="1" stop-color="#FB8500"/>
</linearGradient>
</defs>
</svg>
