<svg width="58" height="58" viewBox="0 0 58 58" fill="none" xmlns="http://www.w3.org/2000/svg">
<path fill-rule="evenodd" clip-rule="evenodd" d="M14.3356 3.66982C15.3119 4.57984 15.3657 6.10904 14.4557 7.0854C12.202 9.50339 10.7287 12.3803 10.2419 15.4793C10.0348 16.7979 8.79804 17.6988 7.4795 17.4917C6.161 17.2846 5.26001 16.0479 5.46712 14.7293C6.11827 10.5838 8.07601 6.84129 10.92 3.78996C11.83 2.8136 13.3592 2.7598 14.3356 3.66982Z" fill="url(#paint0_linear_9117_29303)"/>
<path opacity="0.4" d="M16.5847 10.9861C19.6778 5.99932 24.8356 3.021 32.625 3.021C40.4142 3.021 45.5721 5.99934 48.6651 10.9861C51.6565 15.8088 52.5625 22.2704 52.5625 29.0002C52.5625 35.7299 51.6565 42.1915 48.6651 47.0142C45.5721 52.001 40.4142 54.9793 32.625 54.9793C24.8356 54.9793 19.6778 52.001 16.5847 47.0142C13.5933 42.1915 12.6875 35.7299 12.6875 29.0002C12.6875 22.2704 13.5933 15.8088 16.5847 10.9861Z" fill="url(#paint1_linear_9117_29303)"/>
<path fill-rule="evenodd" clip-rule="evenodd" d="M34.4375 3.07726V12.75C34.7628 12.7914 35.1052 12.8661 35.4518 13.0096C36.488 13.4388 37.3114 14.2621 37.7406 15.2984C37.9393 15.7781 38.0059 16.2502 38.0352 16.6795C38.0625 17.079 38.0625 17.5547 38.0625 18.0726V23.0111C38.0625 23.5289 38.0625 24.0046 38.0352 24.4041C38.0059 24.8336 37.9393 25.3056 37.7406 25.7853C37.3114 26.8215 36.488 27.6449 35.4518 28.0741C34.9721 28.2727 34.5001 28.3394 34.0706 28.3687C33.6712 28.396 33.1953 28.396 32.6777 28.396H32.5723C32.0547 28.396 31.5788 28.396 31.1794 28.3687C30.7499 28.3394 30.2779 28.2727 29.7982 28.0741C28.762 27.6449 27.9386 26.8215 27.5094 25.7853C27.3107 25.3056 27.2441 24.8336 27.2148 24.4041C27.1875 24.0046 27.1875 23.5289 27.1875 23.0111V18.0726C27.1875 17.5548 27.1875 17.079 27.2148 16.6795C27.2441 16.2502 27.3107 15.7781 27.5094 15.2984C27.9386 14.2621 28.762 13.4388 29.7982 13.0096C30.1448 12.8661 30.4872 12.7914 30.8125 12.75V3.07726C31.4002 3.03992 32.0042 3.021 32.625 3.021C33.2458 3.021 33.8498 3.03992 34.4375 3.07726ZM30.8616 16.6783C30.9227 16.5362 31.036 16.4228 31.1781 16.3617C31.196 16.3572 31.2647 16.3425 31.4261 16.3315C31.6871 16.3137 32.0373 16.3127 32.625 16.3127C33.2127 16.3127 33.5629 16.3137 33.8239 16.3315C33.9853 16.3425 34.054 16.3572 34.0719 16.3617C34.214 16.4228 34.3273 16.5362 34.3884 16.6783C34.393 16.6961 34.4078 16.7647 34.4187 16.9263C34.4365 17.1873 34.4375 17.5374 34.4375 18.1252V22.9585C34.4375 23.5463 34.4365 23.8964 34.4187 24.1574C34.4078 24.3188 34.393 24.3875 34.3884 24.4054C34.3273 24.5475 34.214 24.6608 34.0719 24.7219C34.054 24.7265 33.9853 24.7413 33.8239 24.7521C33.5629 24.77 33.2127 24.771 32.625 24.771C32.0373 24.771 31.6871 24.77 31.4261 24.7521C31.2647 24.7413 31.196 24.7265 31.1781 24.7219C31.036 24.6608 30.9227 24.5475 30.8616 24.4054C30.857 24.3875 30.8422 24.3188 30.8314 24.1574C30.8135 23.8964 30.8125 23.5463 30.8125 22.9585V18.1252C30.8125 17.5374 30.8135 17.1873 30.8314 16.9263C30.8422 16.7647 30.857 16.6961 30.8616 16.6783Z" fill="url(#paint2_linear_9117_29303)"/>
<defs>
<linearGradient id="paint0_linear_9117_29303" x1="5.4375" y1="10.2712" x2="15.1045" y2="10.2712" gradientUnits="userSpaceOnUse">
<stop stop-color="#FF4308"/>
<stop offset="1" stop-color="#FB8500"/>
</linearGradient>
<linearGradient id="paint1_linear_9117_29303" x1="12.6875" y1="29.0002" x2="52.5625" y2="29.0002" gradientUnits="userSpaceOnUse">
<stop stop-color="#FF4308"/>
<stop offset="1" stop-color="#FB8500"/>
</linearGradient>
<linearGradient id="paint2_linear_9117_29303" x1="27.1875" y1="15.7085" x2="38.0625" y2="15.7085" gradientUnits="userSpaceOnUse">
<stop stop-color="#FF4308"/>
<stop offset="1" stop-color="#FB8500"/>
</linearGradient>
</defs>
</svg>
