<svg width="92" height="93" viewBox="0 0 92 93" fill="none" xmlns="http://www.w3.org/2000/svg">
<rect opacity="0.1" y="0.493652" width="92" height="92" rx="4" fill="#04060C"/>
<path fill-rule="evenodd" clip-rule="evenodd" d="M21 69.3673C21 67.9131 22.1641 66.7344 23.6 66.7344H70.4C71.836 66.7344 73 67.9131 73 69.3673C73 70.8214 71.836 72.0001 70.4 72.0001H23.6C22.1641 72.0001 21 70.8214 21 69.3673Z" fill="#04060C"/>
<path fill-rule="evenodd" clip-rule="evenodd" d="M38.3254 46.3296H55.6778C57.634 46.3296 59.2455 46.3296 60.5312 46.4575C61.8574 46.5895 63.0909 46.8759 64.1642 47.6276C65.318 48.4359 66.2132 49.568 66.7358 50.8858C67.2231 52.1143 67.2189 53.3941 67.0437 54.7253C66.8739 56.0136 66.5057 57.5907 66.0598 59.5011L66.0174 59.682C65.5747 61.5795 65.2148 63.1208 64.817 64.3585C64.4044 65.6421 63.9086 66.7424 63.1218 67.7115C62.2207 68.8221 61.0907 69.7209 59.811 70.347C58.6956 70.8928 57.5204 71.1256 56.185 71.2356C54.8959 71.342 53.3206 71.342 51.3784 71.342H42.625C40.6825 71.342 39.1074 71.342 37.8184 71.2356C36.483 71.1256 35.3078 70.8928 34.1922 70.347C32.9125 69.7209 31.7825 68.8221 30.8814 67.7115C30.0947 66.7424 29.599 65.6421 29.1863 64.3585C28.7885 63.1208 28.4287 61.5795 27.9858 59.6823L27.9435 59.5011C27.4975 57.5904 27.1293 56.0136 26.9597 54.7253C26.7844 53.3941 26.7802 52.1143 27.2675 50.8858C27.7901 49.568 28.6851 48.4359 29.8391 47.6276C30.9123 46.8759 32.1458 46.5895 33.4722 46.4575C34.7578 46.3296 36.3691 46.3296 38.3254 46.3296ZM44.4016 54.2282C43.3246 54.2282 42.4516 55.1124 42.4516 56.2029C42.4516 57.2935 43.3246 58.1776 44.4016 58.1776H49.6016C50.6785 58.1776 51.5516 57.2935 51.5516 56.2029C51.5516 55.1124 50.6785 54.2282 49.6016 54.2282H44.4016Z" fill="#04060C"/>
<g opacity="0.4">
<path fill-rule="evenodd" clip-rule="evenodd" d="M55.7916 44.156C51.7161 38.1516 42.235 38.396 38.1898 44.1789C37.5673 45.0688 36.3502 45.2792 35.4714 44.6489C34.5926 44.0186 34.3849 42.7861 35.0074 41.8962C40.5221 34.0125 53.2985 33.5109 59.0055 41.9191C59.6157 42.8177 59.3906 44.0473 58.5032 44.6649C57.6155 45.2826 56.4016 45.0549 55.7916 44.156Z" fill="#04060C"/>
<path fill-rule="evenodd" clip-rule="evenodd" d="M46.9996 23.9493C45.2046 23.9493 43.7496 25.4228 43.7496 27.2404C43.7496 29.0581 45.2046 30.5315 46.9996 30.5315C48.7944 30.5315 50.2496 29.0581 50.2496 27.2404C50.2496 25.4228 48.7944 23.9493 46.9996 23.9493ZM39.8496 27.2404C39.8496 23.2417 43.0507 20 46.9996 20C50.9482 20 54.1496 23.2417 54.1496 27.2404C54.1496 31.2392 50.9482 34.4809 46.9996 34.4809C43.0507 34.4809 39.8496 31.2392 39.8496 27.2404Z" fill="#04060C"/>
</g>
</svg>
