<svg width="93" height="93" viewBox="0 0 93 93" fill="none" xmlns="http://www.w3.org/2000/svg">
<rect x="0.5" y="0.0812988" width="92" height="92" rx="4" fill="white" fill-opacity="0.1"/>
<path fill-rule="evenodd" clip-rule="evenodd" d="M31.3356 23.6698C32.3119 24.5798 32.3657 26.109 31.4557 27.0854C29.202 29.5034 27.7287 32.3803 27.2419 35.4793C27.0348 36.7979 25.798 37.6988 24.4795 37.4917C23.161 37.2846 22.26 36.0479 22.4671 34.7293C23.1183 30.5838 25.076 26.8413 27.92 23.79C28.83 22.8136 30.3592 22.7598 31.3356 23.6698Z" fill="url(#paint0_linear_9117_31655)"/>
<path opacity="0.4" d="M33.5847 30.9861C36.6778 25.9993 41.8356 23.021 49.625 23.021C57.4142 23.021 62.5721 25.9993 65.6651 30.9861C68.6565 35.8088 69.5625 42.2704 69.5625 49.0002C69.5625 55.7299 68.6565 62.1915 65.6651 67.0142C62.5721 72.001 57.4142 74.9793 49.625 74.9793C41.8356 74.9793 36.6778 72.001 33.5847 67.0142C30.5933 62.1915 29.6875 55.7299 29.6875 49.0002C29.6875 42.2704 30.5933 35.8088 33.5847 30.9861Z" fill="url(#paint1_linear_9117_31655)"/>
<path fill-rule="evenodd" clip-rule="evenodd" d="M51.4375 23.0773V32.75C51.7628 32.7914 52.1052 32.8661 52.4518 33.0096C53.488 33.4388 54.3114 34.2621 54.7406 35.2984C54.9393 35.7781 55.0059 36.2502 55.0352 36.6795C55.0625 37.079 55.0625 37.5547 55.0625 38.0726V43.0111C55.0625 43.5289 55.0625 44.0046 55.0352 44.4041C55.0059 44.8336 54.9393 45.3056 54.7406 45.7853C54.3114 46.8215 53.488 47.6449 52.4518 48.0741C51.9721 48.2727 51.5001 48.3394 51.0706 48.3687C50.6712 48.396 50.1953 48.396 49.6777 48.396H49.5723C49.0547 48.396 48.5788 48.396 48.1794 48.3687C47.7499 48.3394 47.2779 48.2727 46.7982 48.0741C45.762 47.6449 44.9386 46.8215 44.5094 45.7853C44.3107 45.3056 44.2441 44.8336 44.2148 44.4041C44.1875 44.0046 44.1875 43.5289 44.1875 43.0111V38.0726C44.1875 37.5548 44.1875 37.079 44.2148 36.6795C44.2441 36.2502 44.3107 35.7781 44.5094 35.2984C44.9386 34.2621 45.762 33.4388 46.7982 33.0096C47.1448 32.8661 47.4872 32.7914 47.8125 32.75V23.0773C48.4002 23.0399 49.0042 23.021 49.625 23.021C50.2458 23.021 50.8498 23.0399 51.4375 23.0773ZM47.8616 36.6783C47.9227 36.5362 48.036 36.4228 48.1781 36.3617C48.196 36.3572 48.2647 36.3425 48.4261 36.3315C48.6871 36.3137 49.0373 36.3127 49.625 36.3127C50.2127 36.3127 50.5629 36.3137 50.8239 36.3315C50.9853 36.3425 51.054 36.3572 51.0719 36.3617C51.214 36.4228 51.3273 36.5362 51.3884 36.6783C51.393 36.6961 51.4078 36.7647 51.4187 36.9263C51.4365 37.1873 51.4375 37.5374 51.4375 38.1252V42.9585C51.4375 43.5463 51.4365 43.8964 51.4187 44.1574C51.4078 44.3188 51.393 44.3875 51.3884 44.4054C51.3273 44.5475 51.214 44.6608 51.0719 44.7219C51.054 44.7265 50.9853 44.7413 50.8239 44.7521C50.5629 44.77 50.2127 44.771 49.625 44.771C49.0373 44.771 48.6871 44.77 48.4261 44.7521C48.2647 44.7413 48.196 44.7265 48.1781 44.7219C48.036 44.6608 47.9227 44.5475 47.8616 44.4054C47.857 44.3875 47.8422 44.3188 47.8314 44.1574C47.8135 43.8964 47.8125 43.5463 47.8125 42.9585V38.1252C47.8125 37.5374 47.8135 37.1873 47.8314 36.9263C47.8422 36.7647 47.857 36.6961 47.8616 36.6783Z" fill="url(#paint2_linear_9117_31655)"/>
<defs>
<linearGradient id="paint0_linear_9117_31655" x1="22.4375" y1="30.2712" x2="32.1045" y2="30.2712" gradientUnits="userSpaceOnUse">
<stop stop-color="#2CE97A"/>
<stop offset="1" stop-color="#D9D314"/>
</linearGradient>
<linearGradient id="paint1_linear_9117_31655" x1="29.6875" y1="49.0002" x2="69.5625" y2="49.0002" gradientUnits="userSpaceOnUse">
<stop stop-color="#2CE97A"/>
<stop offset="1" stop-color="#D9D314"/>
</linearGradient>
<linearGradient id="paint2_linear_9117_31655" x1="44.1875" y1="35.7085" x2="55.0625" y2="35.7085" gradientUnits="userSpaceOnUse">
<stop stop-color="#2CE97A"/>
<stop offset="1" stop-color="#D9D314"/>
</linearGradient>
</defs>
</svg>
