<svg width="50" height="44" viewBox="0 0 50 44" fill="none" xmlns="http://www.w3.org/2000/svg">
<path opacity="0.4" d="M49.1644 12.4609V31.5391C49.1758 34.7699 47.9006 37.8727 45.6198 40.1633C43.3391 42.4539 40.2401 43.7443 37.0061 43.75H13.0547C9.81506 43.7557 6.7061 42.4739 4.41328 40.1874C2.12046 37.9008 0.832031 34.7971 0.832031 31.5605V12.4609C0.833796 11.0396 1.08837 9.62992 1.58387 8.2976C3.32983 3.46962 7.91637 0.251857 13.0547 0.250002H36.9417C42.1427 0.247099 46.7738 3.53831 48.477 8.44783C48.9496 9.73234 49.1825 11.0925 49.1644 12.4609Z" fill="url(#paint0_linear_9117_31614)"/>
<path d="M48.8931 8.21928L48.6568 8.41242C44.2103 11.8675 29.818 23.4346 29.818 23.4346C27.3153 25.4678 23.7282 25.4678 21.2255 23.4346C21.2255 23.4346 6.91916 11.889 2.47258 8.43388L2 8.06906C3.73879 3.23262 8.32697 0.00511492 13.4709 0H37.3578C42.5645 0.0002558 47.1973 3.30129 48.8931 8.21928Z" fill="url(#paint1_linear_9117_31614)"/>
<defs>
<linearGradient id="paint0_linear_9117_31614" x1="0.832031" y1="22" x2="49.1654" y2="22" gradientUnits="userSpaceOnUse">
<stop stop-color="#2CE97A"/>
<stop offset="1" stop-color="#D9D314"/>
</linearGradient>
<linearGradient id="paint1_linear_9117_31614" x1="2" y1="12.4797" x2="48.8931" y2="12.4797" gradientUnits="userSpaceOnUse">
<stop stop-color="#2CE97A"/>
<stop offset="1" stop-color="#D9D314"/>
</linearGradient>
</defs>
</svg>
