<svg width="59" height="59" viewBox="0 0 59 59" fill="none" xmlns="http://www.w3.org/2000/svg">
<path opacity="0.3" fill-rule="evenodd" clip-rule="evenodd" d="M7.75 9.74772C7.75 8.41303 8.83198 7.33105 10.1667 7.33105H27.0833V12.1644C27.0833 22.8419 18.4275 31.4977 7.75 31.4977V9.74772ZM51.25 9.74772V31.4977C40.5725 31.4977 31.9167 22.8419 31.9167 12.1644V7.33105H48.8333C50.168 7.33105 51.25 8.41303 51.25 9.74772Z" fill="url(#paint0_linear_9117_29282)"/>
<path fill-rule="evenodd" clip-rule="evenodd" d="M10.1667 50.8314C8.83198 50.8314 7.75 49.7494 7.75 48.4147V31.498C15.7581 31.498 22.25 37.9899 22.25 45.998V50.8314H10.1667ZM48.8333 50.8314H36.75V45.998C36.75 37.9899 43.2419 31.498 51.25 31.498V48.4147C51.25 49.7494 50.168 50.8314 48.8333 50.8314Z" fill="url(#paint1_linear_9117_29282)"/>
<defs>
<linearGradient id="paint0_linear_9117_29282" x1="7.75" y1="19.4144" x2="51.25" y2="19.4144" gradientUnits="userSpaceOnUse">
<stop stop-color="#FF4308"/>
<stop offset="1" stop-color="#FB8500"/>
</linearGradient>
<linearGradient id="paint1_linear_9117_29282" x1="7.75" y1="41.1647" x2="51.25" y2="41.1647" gradientUnits="userSpaceOnUse">
<stop stop-color="#FF4308"/>
<stop offset="1" stop-color="#FB8500"/>
</linearGradient>
</defs>
</svg>
