<svg width="93" height="93" viewBox="0 0 93 93" fill="none" xmlns="http://www.w3.org/2000/svg">
<rect x="0.5" y="0.0812988" width="92" height="92" rx="4" fill="white" fill-opacity="0.1"/>
<path d="M51.069 23.2833L49.4849 21.0975C49.2643 20.7931 49.1542 20.641 48.986 20.5624C48.818 20.4839 48.6398 20.4963 48.2833 20.521C44.2221 20.8032 40.5216 22.3956 37.601 24.8786C37.4468 25.0097 37.5413 25.2484 37.7434 25.2603C40.0865 25.3982 41.3334 26.7 42.6992 28.1438C44.8101 30.3756 46.47 30.1911 47.2482 29.7798C47.5662 29.6117 47.6248 29.4927 47.6449 29.4517L47.6463 29.4488C47.7098 29.3205 47.7364 29.1834 47.831 28.6641C47.9101 28.2302 48.0475 27.4854 48.5234 26.7662C49.0268 26.0056 49.7783 25.4512 50.7691 25.0583C51.1823 24.8945 51.3094 24.6653 51.3552 24.4491C51.4124 24.1797 51.3662 23.751 51.069 23.2833Z" fill="url(#paint0_linear_9117_31623)"/>
<path d="M53.338 56.5656C53.6125 56.7955 53.7496 56.9106 53.9231 56.9479C54.0966 56.9852 54.2602 56.9393 54.5878 56.8478C60.4861 55.1956 65.1948 50.6945 67.1383 44.9212C67.3932 44.1635 67.5208 43.7848 67.3062 43.4862C67.0917 43.1877 66.67 43.1877 65.8265 43.1877H65.1159C63.9218 43.1877 63.268 43.6283 62.3092 44.2885L62.275 44.3119C61.2835 44.9946 59.8355 45.9916 57.5965 45.5436C54.6459 44.9532 53.235 45.1102 52.6267 45.3914C52.3999 45.4963 52.3089 45.6069 52.2446 45.7364C52.1593 45.9085 52.074 46.2227 52.074 46.7763L52.0742 46.9846C52.0747 48.2061 52.0752 49.1291 51.8657 49.9708C51.6475 50.8468 51.2138 51.5915 50.6801 52.5085L50.5888 52.665C50.2423 53.2614 50.1762 53.5916 50.1831 53.7452C50.1855 53.7971 50.1958 53.8413 50.2316 53.9029C50.2732 53.9739 50.3769 54.1127 50.6268 54.2981C50.6555 54.3192 50.6834 54.3411 50.7104 54.3641L53.338 56.5656Z" fill="url(#paint1_linear_9117_31623)"/>
<path opacity="0.4" d="M54.4589 22.0643C54.2257 21.5565 54.1091 21.3026 54.2114 21.1862C54.3134 21.0697 54.5583 21.1453 55.0481 21.2964C62.607 23.6294 68.1001 30.6748 68.1001 39.0038C68.1001 39.337 67.826 39.6015 67.493 39.6015H65.1134C62.7876 39.6015 61.3459 40.5956 60.356 41.2782L60.2753 41.3338C59.3167 41.9937 58.98 42.1638 58.2969 42.0269C55.2741 41.4221 52.8523 41.3354 51.1208 42.1361C50.1779 42.5719 49.4724 43.2552 49.0325 44.1402C48.6139 44.9832 48.4875 45.9045 48.4875 46.7762C48.4875 48.2998 48.4746 48.7454 48.3855 49.1034C48.3054 49.425 48.1549 49.7148 47.4883 50.8622C47.0266 51.6561 46.5473 52.7165 46.6002 53.904C46.6575 55.2009 47.3248 56.2984 48.4442 57.1444C48.5902 57.2668 48.4978 57.5012 48.3078 57.4882C38.6757 56.8329 31.0654 48.8076 31.0654 39.0038C31.0654 35.7134 31.9227 32.6233 33.426 29.945C33.7157 29.4288 33.8605 29.1708 34.1401 29.0071C34.4197 28.8434 34.7415 28.8434 35.3852 28.8434H37.5788C38.3302 28.8964 38.7121 29.1478 40.0942 30.609C42.999 33.6799 46.3548 34.3069 48.9204 32.9507C49.8484 32.4602 50.4721 31.8153 50.8556 31.0414C51.1602 30.4265 51.2723 29.7813 51.3353 29.4182L51.3549 29.3074C51.4304 28.8929 51.4746 28.7993 51.5098 28.7462C51.5212 28.7285 51.6177 28.5785 52.0873 28.3924C53.5925 27.7956 54.5583 26.6098 54.8589 25.1945C55.0883 24.1145 54.9057 23.0373 54.4589 22.0643Z" fill="url(#paint2_linear_9117_31623)"/>
<path fill-rule="evenodd" clip-rule="evenodd" d="M34.5705 20.6025C35.4904 21.5486 35.4691 23.0614 34.523 23.9812C30.5407 27.8529 28.0786 33.2366 28.0786 39.1909C28.0786 50.94 37.6878 60.4983 49.5831 60.4983C55.4512 60.4983 60.7633 58.1727 64.6432 54.4006C65.5894 53.4806 67.1021 53.5022 68.022 54.4481C68.9419 55.3943 68.9207 56.907 67.9745 57.8269C63.2346 62.4351 56.7393 65.2771 49.5831 65.2771V67.6665H51.9725C53.2921 67.6665 54.3619 68.7362 54.3619 70.0558C54.3619 71.3755 53.2921 72.4452 51.9725 72.4452H42.4149C41.0953 72.4452 40.0255 71.3755 40.0255 70.0558C40.0255 68.7362 41.0953 67.6665 42.4149 67.6665H44.8043V64.8467C32.5823 62.6174 23.2998 51.993 23.2998 39.1909C23.2998 31.8875 26.3268 25.2848 31.1918 20.5549C32.1379 19.635 33.6507 19.6563 34.5705 20.6025Z" fill="url(#paint3_linear_9117_31623)"/>
<defs>
<linearGradient id="paint0_linear_9117_31623" x1="37.5244" y1="25.2684" x2="51.3765" y2="25.2684" gradientUnits="userSpaceOnUse">
<stop stop-color="#2CE97A"/>
<stop offset="1" stop-color="#D9D314"/>
</linearGradient>
<linearGradient id="paint1_linear_9117_31623" x1="50.1826" y1="50.0743" x2="67.415" y2="50.0743" gradientUnits="userSpaceOnUse">
<stop stop-color="#2CE97A"/>
<stop offset="1" stop-color="#D9D314"/>
</linearGradient>
<linearGradient id="paint2_linear_9117_31623" x1="31.0654" y1="39.3091" x2="68.1001" y2="39.3091" gradientUnits="userSpaceOnUse">
<stop stop-color="#2CE97A"/>
<stop offset="1" stop-color="#D9D314"/>
</linearGradient>
<linearGradient id="paint3_linear_9117_31623" x1="23.2998" y1="46.1619" x2="68.6983" y2="46.1619" gradientUnits="userSpaceOnUse">
<stop stop-color="#2CE97A"/>
<stop offset="1" stop-color="#D9D314"/>
</linearGradient>
</defs>
</svg>
