<svg width="50" height="44" viewBox="0 0 50 44" fill="none" xmlns="http://www.w3.org/2000/svg">
<path d="M45.6248 8.73939L36.1109 15.2363V28.7628L45.6248 35.2503C47.4651 36.5058 49.9998 35.2253 49.9998 33.0339V10.9566C49.9998 8.77377 47.4737 7.48728 45.6248 8.73939ZM23.6109 19.937H18.6717V15.0472C18.6717 13.9816 17.821 13.062 16.6664 13.062C15.5119 13.062 14.5831 13.9816 14.5831 15.0472V19.937H9.64388C8.57096 19.937 7.63867 20.8566 7.63867 21.9995C7.63867 23.1391 8.5701 23.9847 9.64388 23.9847H14.5831V28.7972C14.5831 30.0175 15.5119 30.937 16.6664 30.937C17.8175 30.937 18.6717 30.0141 18.6717 28.9519V23.9847H23.6109C24.7654 23.9847 25.6942 23.1425 25.6942 21.9995C25.6942 20.8566 24.7654 19.937 23.6109 19.937Z" fill="url(#paint0_linear_9117_28940)"/>
<path opacity="0.4" d="M29.1667 5.5H4.16667C1.86545 5.5 0 7.3468 0 9.625V34.375C0 36.6523 1.86545 38.5 4.16667 38.5H29.1667C31.4679 38.5 33.3333 36.6532 33.3333 34.375V9.625C33.3333 7.3468 31.467 5.5 29.1667 5.5ZM23.6111 23.9852H18.6719V28.7977C18.6719 30.018 17.8212 30.9375 16.6667 30.9375C15.5148 30.9375 14.6615 30.0145 14.6615 28.9523V23.9852H9.6441C8.57031 23.9852 7.63889 23.143 7.63889 22C7.63889 20.8605 8.57118 20.0148 9.6441 20.0148H14.5833V15.0477C14.5833 13.982 15.5122 13.0625 16.6667 13.0625C17.8212 13.0625 18.6719 13.9855 18.6719 15.0477V19.9375H23.6111C24.7656 19.9375 25.6944 20.857 25.6944 22C25.6944 23.143 24.7656 23.9852 23.6111 23.9852Z" fill="url(#paint1_linear_9117_28940)"/>
<defs>
<linearGradient id="paint0_linear_9117_28940" x1="7.63867" y1="21.9963" x2="49.9998" y2="21.9963" gradientUnits="userSpaceOnUse">
<stop stop-color="#FF4308"/>
<stop offset="1" stop-color="#FB8500"/>
</linearGradient>
<linearGradient id="paint1_linear_9117_28940" x1="0" y1="22" x2="33.3333" y2="22" gradientUnits="userSpaceOnUse">
<stop stop-color="#FF4308"/>
<stop offset="1" stop-color="#FB8500"/>
</linearGradient>
</defs>
</svg>
