<svg width="32" height="32" viewBox="0 0 32 32" fill="none" xmlns="http://www.w3.org/2000/svg">
<path opacity="0.2" d="M23.5949 18.0271C23.8005 17.7291 23.9032 17.58 23.8901 17.4359C23.8771 17.2918 23.7579 17.1726 23.5195 16.9342L15.0668 8.48067C14.8284 8.24233 14.7093 8.12315 14.5651 8.11001C14.4209 8.09686 14.2719 8.19961 13.9739 8.4051C12.8034 9.21197 11.6634 9.53374 10.4649 9.65097L10.4139 9.65595C9.49544 9.74577 8.73403 9.82022 8.13969 9.93687C7.53505 10.0555 6.94279 10.2446 6.47499 10.6733C6.02752 11.0834 5.7889 11.5936 5.62271 12.1394C5.46641 12.6527 5.34663 13.2979 5.20699 14.05L3.33566 24.1279C3.17013 25.019 3.0258 25.7959 3.0032 26.4163C2.97916 27.0764 3.08058 27.7936 3.64355 28.3566C4.20653 28.9196 4.92374 29.0211 5.5838 28.997C6.20422 28.9744 6.98103 28.83 7.87204 28.6646L17.9495 26.7931C18.7016 26.6535 19.3467 26.5336 19.86 26.3774C20.4056 26.2112 20.9159 25.9726 21.3259 25.5252C21.7547 25.0575 21.9437 24.4652 22.0624 23.8606C22.1792 23.2662 22.2537 22.5047 22.3437 21.586L22.3487 21.5351C22.466 20.3368 22.788 19.1974 23.5949 18.0271Z" fill="white"/>
<path d="M25.3261 6.32961C24.2965 5.29993 23.4445 4.44792 22.6831 3.88394C21.8809 3.28992 21.0315 2.9017 20.0229 3.02181C18.6896 3.1806 17.6804 4.06573 16.9519 4.91689C16.6893 5.22373 16.44 5.55548 16.2085 5.88388C16.0308 6.13606 15.9419 6.26217 15.9543 6.40757C15.9668 6.55298 16.0787 6.66478 16.3021 6.88838L25.1104 15.6975C25.334 15.9211 25.4459 16.0328 25.5912 16.0453C25.7367 16.0579 25.8628 15.9689 26.1149 15.7912C26.4436 15.5596 26.7755 15.3101 27.0824 15.0475C27.9336 14.3189 28.8188 13.3098 28.9776 11.9764C29.0976 10.9679 28.7095 10.1184 28.1155 9.31632C27.5515 8.5548 26.6995 7.70285 25.6697 6.67325L25.3261 6.32961Z" fill="white"/>
<path d="M20.8662 14.2812L15.2734 8.68799C15.2796 8.69448 15.2858 8.70092 15.2922 8.70728L20.8662 14.2812Z" fill="white"/>
<path d="M4.91557 28.9673L12.8343 21.0485C13.3399 21.3248 13.8872 21.5056 14.45 21.597C15.1769 21.715 15.8617 21.2214 15.9797 20.4945C16.0977 19.7677 15.6043 19.0828 14.8773 18.9648C14.3801 18.8841 13.9617 18.6758 13.6416 18.3556C13.3214 18.0354 13.1131 17.617 13.0324 17.1198C12.9144 16.393 12.2295 15.8994 11.5027 16.0174C10.7758 16.1354 10.2822 16.8204 10.4002 17.5472C10.4916 18.1101 10.6724 18.6573 10.9487 19.1629L3.03125 27.0804C3.09509 27.5326 3.26508 27.9793 3.64238 28.3566C4.01888 28.733 4.46434 28.9032 4.91557 28.9673Z" fill="white"/>
</svg>
