<svg width="46" height="48" viewBox="0 0 46 48" fill="none" xmlns="http://www.w3.org/2000/svg">
<path fill-rule="evenodd" clip-rule="evenodd" d="M0.449219 44.9709C0.449219 43.6726 1.45273 42.6201 2.6906 42.6201H43.0354C44.2733 42.6201 45.2768 43.6726 45.2768 44.9709C45.2768 46.2692 44.2733 47.3217 43.0354 47.3217H2.6906C1.45273 47.3217 0.449219 46.2692 0.449219 44.9709Z" fill="url(#paint0_linear_9117_28924)"/>
<path fill-rule="evenodd" clip-rule="evenodd" d="M15.3834 24.4014H30.3424C32.0288 24.4014 33.418 24.4014 34.5263 24.5156C35.6697 24.6334 36.733 24.8892 37.6582 25.5603C38.6529 26.282 39.4247 27.2928 39.8752 28.4694C40.2952 29.5663 40.2916 30.709 40.1406 31.8976C39.9942 33.0478 39.6768 34.4559 39.2924 36.1617L39.2559 36.3232C38.8742 38.0174 38.564 39.3935 38.221 40.4986C37.8653 41.6447 37.4379 42.627 36.7597 43.4924C35.9828 44.4839 35.0087 45.2865 33.9055 45.8455C32.9439 46.3328 31.9308 46.5406 30.7797 46.6389C29.6684 46.7339 28.3103 46.7339 26.636 46.7339H19.09C17.4154 46.7339 16.0576 46.7339 14.9463 46.6389C13.7952 46.5406 12.7821 46.3328 11.8204 45.8455C10.7172 45.2865 9.74298 44.4839 8.96614 43.4924C8.28799 42.627 7.86065 41.6447 7.50492 40.4986C7.16192 39.3935 6.85176 38.0174 6.46996 36.3234L6.4335 36.1617C6.04899 34.4557 5.73163 33.0478 5.5854 31.8976C5.43431 30.709 5.43066 29.5663 5.85074 28.4694C6.3013 27.2928 7.07285 26.282 8.06764 25.5603C8.99279 24.8892 10.0562 24.6334 11.1997 24.5156C12.308 24.4014 13.697 24.4014 15.3834 24.4014ZM20.6215 31.4537C19.6931 31.4537 18.9405 32.2431 18.9405 33.2168C18.9405 34.1905 19.6931 34.9799 20.6215 34.9799H25.1043C26.0326 34.9799 26.7853 34.1905 26.7853 33.2168C26.7853 32.2431 26.0326 31.4537 25.1043 31.4537H20.6215Z" fill="url(#paint1_linear_9117_28924)"/>
<g opacity="0.4">
<path fill-rule="evenodd" clip-rule="evenodd" d="M30.4417 22.4605C26.9284 17.0994 18.755 17.3176 15.2678 22.4809C14.7311 23.2755 13.6819 23.4633 12.9243 22.9005C12.1667 22.3377 11.9876 21.2373 12.5243 20.4428C17.2783 13.4038 28.2925 12.9559 33.2123 20.4632C33.7384 21.2655 33.5443 22.3634 32.7793 22.9149C32.0141 23.4664 30.9676 23.263 30.4417 22.4605Z" fill="url(#paint2_linear_9117_28924)"/>
<path fill-rule="evenodd" clip-rule="evenodd" d="M22.863 4.41876C21.3156 4.41876 20.0613 5.73436 20.0613 7.35725C20.0613 8.98015 21.3156 10.2957 22.863 10.2957C24.4102 10.2957 25.6647 8.98015 25.6647 7.35725C25.6647 5.73436 24.4102 4.41876 22.863 4.41876ZM16.6992 7.35725C16.6992 3.78692 19.4588 0.892578 22.863 0.892578C26.267 0.892578 29.0268 3.78692 29.0268 7.35725C29.0268 10.9276 26.267 13.8219 22.863 13.8219C19.4588 13.8219 16.6992 10.9276 16.6992 7.35725Z" fill="url(#paint3_linear_9117_28924)"/>
</g>
<defs>
<linearGradient id="paint0_linear_9117_28924" x1="0.449219" y1="44.9709" x2="45.2768" y2="44.9709" gradientUnits="userSpaceOnUse">
<stop stop-color="#FF4308"/>
<stop offset="1" stop-color="#FB8500"/>
</linearGradient>
<linearGradient id="paint1_linear_9117_28924" x1="5.49219" y1="35.5676" x2="40.2337" y2="35.5676" gradientUnits="userSpaceOnUse">
<stop stop-color="#FF4308"/>
<stop offset="1" stop-color="#FB8500"/>
</linearGradient>
<linearGradient id="paint2_linear_9117_28924" x1="12.2148" y1="19.111" x2="33.5082" y2="19.111" gradientUnits="userSpaceOnUse">
<stop stop-color="#FF4308"/>
<stop offset="1" stop-color="#FB8500"/>
</linearGradient>
<linearGradient id="paint3_linear_9117_28924" x1="16.6992" y1="7.35725" x2="29.0268" y2="7.35725" gradientUnits="userSpaceOnUse">
<stop stop-color="#FF4308"/>
<stop offset="1" stop-color="#FB8500"/>
</linearGradient>
</defs>
</svg>
