<svg width="50" height="50" viewBox="0 0 50 50" fill="none" xmlns="http://www.w3.org/2000/svg">
<path d="M29.42 5.05181L28.0388 3.146C27.8465 2.88063 27.7505 2.74796 27.6038 2.67947C27.4574 2.61099 27.3019 2.62178 26.9911 2.64338C23.4502 2.8894 20.2236 4.2778 17.6771 6.44275C17.5427 6.55708 17.6251 6.76518 17.8013 6.77556C19.8442 6.89582 20.9315 8.03084 22.1223 9.28977C23.9629 11.2357 25.4101 11.0748 26.0886 10.7161C26.3659 10.5696 26.417 10.4659 26.4345 10.4301L26.4357 10.4276C26.4911 10.3157 26.5143 10.1961 26.5968 9.74344C26.6657 9.36512 26.7855 8.71566 27.2005 8.08859C27.6394 7.42546 28.2946 6.94201 29.1586 6.59948C29.5188 6.45669 29.6296 6.25678 29.6696 6.06828C29.7194 5.83339 29.6792 5.45961 29.42 5.05181Z" fill="url(#paint0_linear_9117_31249)"/>
<path d="M31.3986 34.0706C31.638 34.271 31.7576 34.3714 31.9088 34.4039C32.0601 34.4364 32.2028 34.3964 32.4884 34.3166C37.6312 32.876 41.7367 28.9515 43.4313 23.9177C43.6536 23.2571 43.7648 22.9269 43.5777 22.6665C43.3906 22.4063 43.0229 22.4062 42.2875 22.4062H41.668C40.6268 22.4062 40.0568 22.7904 39.2207 23.366L39.191 23.3864C38.3264 23.9816 37.0639 24.851 35.1117 24.4604C32.539 23.9456 31.3088 24.0825 30.7784 24.3277C30.5807 24.4191 30.5014 24.5156 30.4453 24.6285C30.371 24.7785 30.2966 25.0524 30.2966 25.5351L30.2968 25.7168C30.2972 26.7818 30.2976 27.5865 30.1149 28.3205C29.9247 29.0842 29.5466 29.7336 29.0812 30.5331L29.0016 30.6696C28.6995 31.1896 28.6418 31.4775 28.6479 31.6114C28.65 31.6567 28.6589 31.6952 28.6902 31.7489C28.7264 31.8108 28.8168 31.9319 29.0347 32.0935C29.0597 32.1119 29.0841 32.131 29.1077 32.151L31.3986 34.0706Z" fill="url(#paint1_linear_9117_31249)"/>
<path opacity="0.4" d="M32.3755 3.989C32.1722 3.54626 32.0705 3.32489 32.1597 3.22333C32.2487 3.12179 32.4622 3.18766 32.8893 3.31945C39.4799 5.35357 44.2694 11.4965 44.2694 18.7587C44.2694 19.0492 44.0305 19.2798 43.74 19.2798H41.6653C39.6374 19.2798 38.3804 20.1467 37.5173 20.7418L37.4469 20.7903C36.611 21.3656 36.3175 21.5139 35.7219 21.3946C33.0863 20.8673 30.9747 20.7916 29.465 21.4898C28.6429 21.8698 28.0277 22.4656 27.6442 23.2372C27.2792 23.9722 27.169 24.7755 27.169 25.5355C27.169 26.864 27.1577 27.2525 27.08 27.5646C27.0102 27.845 26.879 28.0977 26.2978 29.0981C25.8953 29.7904 25.4774 30.715 25.5234 31.7504C25.5734 32.8812 26.1553 33.838 27.1313 34.5757C27.2586 34.6824 27.1779 34.8867 27.0123 34.8755C18.614 34.304 11.9785 27.3067 11.9785 18.7587C11.9785 15.8898 12.726 13.1955 14.0367 10.8602C14.2893 10.4102 14.4156 10.1852 14.6593 10.0425C14.9031 9.89973 15.1837 9.89973 15.7449 9.89973H17.6576C18.3128 9.946 18.6457 10.1651 19.8508 11.4392C22.3835 14.1168 25.3094 14.6634 27.5465 13.4809C28.3556 13.0532 28.8994 12.491 29.2337 11.8162C29.4993 11.2801 29.5971 10.7175 29.6521 10.4009L29.6691 10.3043C29.735 9.9429 29.7735 9.86128 29.8041 9.81503C29.8141 9.79953 29.8983 9.6688 30.3077 9.50649C31.6201 8.98617 32.4622 7.95226 32.7243 6.71825C32.9243 5.7766 32.7651 4.83731 32.3755 3.989Z" fill="url(#paint2_linear_9117_31249)"/>
<path fill-rule="evenodd" clip-rule="evenodd" d="M15.0341 2.71409C15.8362 3.53905 15.8176 4.85803 14.9926 5.66007C11.5204 9.03582 9.3737 13.7299 9.3737 18.9216C9.3737 29.1657 17.7521 37.4997 28.1237 37.4997C33.2402 37.4997 37.8718 35.472 41.2547 32.183C42.0797 31.3809 43.3987 31.3997 44.2008 32.2245C45.0029 33.0495 44.9843 34.3684 44.1593 35.1705C40.0266 39.1884 34.3633 41.6663 28.1237 41.6663V43.7497H30.207C31.3577 43.7497 32.2904 44.6824 32.2904 45.833C32.2904 46.9836 31.3577 47.9163 30.207 47.9163H21.8737C20.7231 47.9163 19.7904 46.9836 19.7904 45.833C19.7904 44.6824 20.7231 43.7497 21.8737 43.7497H23.957V41.2911C13.3005 39.3474 5.20703 30.0838 5.20703 18.9216C5.20703 12.5536 7.84626 6.79665 12.0881 2.67261C12.9131 1.87055 14.2321 1.88912 15.0341 2.71409Z" fill="url(#paint3_linear_9117_31249)"/>
<defs>
<linearGradient id="paint0_linear_9117_31249" x1="17.6104" y1="6.78266" x2="29.6881" y2="6.78266" gradientUnits="userSpaceOnUse">
<stop stop-color="#2CE97A"/>
<stop offset="1" stop-color="#D9D314"/>
</linearGradient>
<linearGradient id="paint1_linear_9117_31249" x1="28.6475" y1="28.4107" x2="43.6726" y2="28.4107" gradientUnits="userSpaceOnUse">
<stop stop-color="#2CE97A"/>
<stop offset="1" stop-color="#D9D314"/>
</linearGradient>
<linearGradient id="paint2_linear_9117_31249" x1="11.9785" y1="19.0249" x2="44.2694" y2="19.0249" gradientUnits="userSpaceOnUse">
<stop stop-color="#2CE97A"/>
<stop offset="1" stop-color="#D9D314"/>
</linearGradient>
<linearGradient id="paint3_linear_9117_31249" x1="5.20703" y1="24.9997" x2="44.7904" y2="24.9997" gradientUnits="userSpaceOnUse">
<stop stop-color="#2CE97A"/>
<stop offset="1" stop-color="#D9D314"/>
</linearGradient>
</defs>
</svg>
