<svg width="50" height="50" viewBox="0 0 50 50" fill="none" xmlns="http://www.w3.org/2000/svg">
<path d="M19.2705 33.333C19.2705 25.5665 25.5665 19.2705 33.333 19.2705C41.0995 19.2705 47.3955 25.5665 47.3955 33.333C47.3955 41.0995 41.0995 47.3955 33.333 47.3955C25.5665 47.3955 19.2705 41.0995 19.2705 33.333Z" fill="url(#paint0_linear_9117_31319)"/>
<path opacity="0.4" d="M10.9375 16.667C10.9375 8.90049 17.2335 2.60449 25 2.60449C32.7665 2.60449 39.0625 8.90049 39.0625 16.667C39.0625 16.8 39.0625 16.8665 39.0513 16.9252C38.9904 17.2402 38.6958 17.46 38.3767 17.4288C38.3171 17.423 38.2377 17.3994 38.0792 17.3524C36.575 16.9064 34.9821 16.667 33.3333 16.667C26.3981 16.667 20.4522 20.903 17.9418 26.9287C17.6334 27.6691 17.4792 28.0391 17.1735 28.1147C16.8678 28.1903 16.5934 27.9634 16.0447 27.5099C12.9252 24.9305 10.9375 21.031 10.9375 16.667Z" fill="url(#paint1_linear_9117_31319)"/>
<path opacity="0.4" d="M16.667 33.3335C16.667 32.8833 16.6848 32.4373 16.7199 31.996C16.7513 31.6002 16.767 31.4023 16.6906 31.2477C16.6142 31.0931 16.456 30.9908 16.1395 30.7865L15.9693 30.6767C13.1518 28.8573 10.9155 26.2071 9.60897 23.0713C9.30066 22.331 9.14649 21.961 8.8408 21.8854C8.53512 21.8098 8.26074 22.0367 7.71201 22.4904C4.59237 25.0698 2.60449 28.9694 2.60449 33.3335C2.60449 41.1 8.90049 47.396 16.667 47.396C18.0963 47.396 19.4757 47.1827 20.7753 46.7865C21.5624 46.5463 21.9559 46.4263 22.0455 46.0906C22.1349 45.7552 21.817 45.4167 21.1816 44.7398C18.3818 41.7583 16.667 37.746 16.667 33.3335Z" fill="url(#paint2_linear_9117_31319)"/>
<defs>
<linearGradient id="paint0_linear_9117_31319" x1="19.2705" y1="33.333" x2="47.3955" y2="33.333" gradientUnits="userSpaceOnUse">
<stop stop-color="#2CE97A"/>
<stop offset="1" stop-color="#D9D314"/>
</linearGradient>
<linearGradient id="paint1_linear_9117_31319" x1="10.9375" y1="15.3668" x2="39.0625" y2="15.3668" gradientUnits="userSpaceOnUse">
<stop stop-color="#2CE97A"/>
<stop offset="1" stop-color="#D9D314"/>
</linearGradient>
<linearGradient id="paint2_linear_9117_31319" x1="2.60449" y1="34.6336" x2="22.0604" y2="34.6336" gradientUnits="userSpaceOnUse">
<stop stop-color="#2CE97A"/>
<stop offset="1" stop-color="#D9D314"/>
</linearGradient>
</defs>
</svg>
