<svg width="50" height="50" viewBox="0 0 50 50" fill="none" xmlns="http://www.w3.org/2000/svg">
<path opacity="0.4" d="M46.3214 19.4398C46.3106 18.8714 46.3052 18.5872 46.1229 18.4083C45.9404 18.2295 45.6537 18.2295 45.0802 18.2295H4.91724C4.3437 18.2295 4.05693 18.2295 3.87464 18.4083C3.69232 18.5872 3.68687 18.8714 3.67595 19.4398C3.64451 21.077 3.64451 22.8853 3.64453 24.881V25.1193C3.64451 29.6832 3.64449 33.2678 4.02076 36.0668C4.40637 38.9347 5.2127 41.2103 7.00059 42.9982C8.78851 44.7862 11.0641 45.5924 13.9321 45.978C16.7309 46.3543 20.3156 46.3543 24.8795 46.3543H25.1179C29.6818 46.3543 33.2666 46.3543 36.0654 45.978C38.9333 45.5924 41.2089 44.7862 42.9968 42.9982C44.7847 41.2103 45.591 38.9347 45.9766 36.0668C46.3529 33.2678 46.3529 29.6832 46.3529 25.1193V24.881C46.3529 22.8855 46.3529 21.077 46.3214 19.4398Z" fill="white"/>
<path d="M25.1193 3.64551H24.8812C20.3172 3.64549 16.7324 3.64547 13.9336 4.02174C11.0656 4.40734 8.79004 5.21367 7.00212 7.00157C5.21423 8.78949 4.4079 11.065 4.02229 13.933C3.96329 14.3719 3.93379 14.5913 4.0245 14.7665C4.06975 14.8539 4.14015 14.9344 4.22073 14.9909C4.38225 15.1041 4.61106 15.1041 5.06867 15.1041H44.9318C45.3893 15.1041 45.6183 15.1041 45.7797 14.9909C45.8604 14.9344 45.9308 14.8539 45.976 14.7665C46.0666 14.5913 46.0372 14.3719 45.9781 13.933C45.5926 11.065 44.7862 8.78949 42.9983 7.00157C41.2104 5.21367 38.9349 4.40734 36.0668 4.02174C33.2681 3.64547 29.6833 3.64549 25.1193 3.64551Z" fill="white"/>
<path fill-rule="evenodd" clip-rule="evenodd" d="M13.0195 27.083C13.0195 26.2201 13.7191 25.5205 14.582 25.5205H16.6654C17.5283 25.5205 18.2279 26.2201 18.2279 27.083C18.2279 27.9459 17.5283 28.6455 16.6654 28.6455H14.582C13.7191 28.6455 13.0195 27.9459 13.0195 27.083ZM21.3529 27.083C21.3529 26.2201 22.0524 25.5205 22.9154 25.5205H35.4154C36.2783 25.5205 36.9779 26.2201 36.9779 27.083C36.9779 27.9459 36.2783 28.6455 35.4154 28.6455H22.9154C22.0524 28.6455 21.3529 27.9459 21.3529 27.083ZM13.0195 35.4163C13.0195 34.5534 13.7191 33.8538 14.582 33.8538H16.6654C17.5283 33.8538 18.2279 34.5534 18.2279 35.4163C18.2279 36.2793 17.5283 36.9788 16.6654 36.9788H14.582C13.7191 36.9788 13.0195 36.2793 13.0195 35.4163ZM21.3529 35.4163C21.3529 34.5534 22.0524 33.8538 22.9154 33.8538H35.4154C36.2783 33.8538 36.9779 34.5534 36.9779 35.4163C36.9779 36.2793 36.2783 36.9788 35.4154 36.9788H22.9154C22.0524 36.9788 21.3529 36.2793 21.3529 35.4163Z" fill="white"/>
</svg>
