<svg width="50" height="50" viewBox="0 0 50 50" fill="none" xmlns="http://www.w3.org/2000/svg">
<path opacity="0.4" d="M46.3224 19.4398C46.3116 18.8714 46.3061 18.5872 46.1238 18.4083C45.9413 18.2295 45.6547 18.2295 45.0811 18.2295H4.91822C4.34468 18.2295 4.0579 18.2295 3.87561 18.4083C3.6933 18.5872 3.68784 18.8714 3.67693 19.4398C3.64549 21.077 3.64549 22.8853 3.64551 24.881V25.1193C3.64549 29.6832 3.64547 33.2678 4.02174 36.0668C4.40734 38.9347 5.21368 41.2103 7.00157 42.9982C8.78949 44.7862 11.065 45.5924 13.9331 45.978C16.7318 46.3543 20.3166 46.3543 24.8805 46.3543H25.1188C29.6828 46.3543 33.2676 46.3543 36.0663 45.978C38.9343 45.5924 41.2099 44.7862 42.9978 42.9982C44.7857 41.2103 45.592 38.9347 45.9776 36.0668C46.3538 33.2678 46.3538 29.6832 46.3538 25.1193V24.881C46.3538 22.8855 46.3538 21.077 46.3224 19.4398Z" fill="#04060C"/>
<path d="M25.1193 3.64551H24.8812C20.3172 3.64549 16.7324 3.64547 13.9336 4.02174C11.0656 4.40734 8.79004 5.21367 7.00212 7.00157C5.21423 8.78949 4.4079 11.065 4.02229 13.933C3.96329 14.3719 3.93379 14.5913 4.0245 14.7665C4.06975 14.8539 4.14015 14.9344 4.22073 14.9909C4.38225 15.1041 4.61106 15.1041 5.06867 15.1041H44.9318C45.3893 15.1041 45.6183 15.1041 45.7797 14.9909C45.8604 14.9344 45.9308 14.8539 45.976 14.7665C46.0666 14.5913 46.0372 14.3719 45.9781 13.933C45.5926 11.065 44.7862 8.78949 42.9983 7.00157C41.2104 5.21367 38.9349 4.40734 36.0668 4.02174C33.2681 3.64547 29.6833 3.64549 25.1193 3.64551Z" fill="#04060C"/>
<path fill-rule="evenodd" clip-rule="evenodd" d="M13.0205 27.083C13.0205 26.2201 13.7201 25.5205 14.583 25.5205H16.6663C17.5293 25.5205 18.2288 26.2201 18.2288 27.083C18.2288 27.9459 17.5293 28.6455 16.6663 28.6455H14.583C13.7201 28.6455 13.0205 27.9459 13.0205 27.083ZM21.3538 27.083C21.3538 26.2201 22.0534 25.5205 22.9163 25.5205H35.4163C36.2793 25.5205 36.9788 26.2201 36.9788 27.083C36.9788 27.9459 36.2793 28.6455 35.4163 28.6455H22.9163C22.0534 28.6455 21.3538 27.9459 21.3538 27.083ZM13.0205 35.4163C13.0205 34.5534 13.7201 33.8538 14.583 33.8538H16.6663C17.5293 33.8538 18.2288 34.5534 18.2288 35.4163C18.2288 36.2793 17.5293 36.9788 16.6663 36.9788H14.583C13.7201 36.9788 13.0205 36.2793 13.0205 35.4163ZM21.3538 35.4163C21.3538 34.5534 22.0534 33.8538 22.9163 33.8538H35.4163C36.2793 33.8538 36.9788 34.5534 36.9788 35.4163C36.9788 36.2793 36.2793 36.9788 35.4163 36.9788H22.9163C22.0534 36.9788 21.3538 36.2793 21.3538 35.4163Z" fill="#04060C"/>
</svg>
