<svg width="206" height="205" viewBox="0 0 206 205" fill="none" xmlns="http://www.w3.org/2000/svg">
<path fill-rule="evenodd" clip-rule="evenodd" d="M147.509 78.5232C160.758 65.2717 182.205 65.2717 195.454 78.5232C208.703 91.7747 208.703 113.225 195.454 126.477C182.205 139.729 160.758 139.729 147.509 126.477L137.235 116.201L116.687 136.753L126.961 147.029C140.21 160.28 140.21 181.731 126.961 194.982C113.712 208.234 92.2649 208.234 79.0158 194.982C65.7667 181.731 65.7667 160.28 79.0158 147.029L89.2897 136.753L68.7418 116.201L58.4679 126.477C45.2188 139.729 23.7719 139.729 10.5228 126.477C-2.72634 113.225 -2.72634 91.7747 10.5228 78.5232C23.7719 65.2717 45.2188 65.2717 58.4679 78.5232L68.7418 88.799L89.2897 68.2474L79.0158 57.9715C65.7667 44.72 65.7667 23.2693 79.0158 10.0177C92.2649 -3.23378 113.712 -3.23378 126.961 10.0177C140.21 23.2693 140.21 44.72 126.961 57.9715L116.687 68.2474L137.235 88.799L147.509 78.5232ZM181.755 112.776C176.083 118.449 166.879 118.449 161.207 112.776L150.933 102.5L161.207 92.2243C166.879 86.5512 176.083 86.5512 181.755 92.2243C187.427 97.8974 187.427 107.103 181.755 112.776ZM92.7144 23.7188C98.3865 18.0457 107.59 18.0457 113.262 23.7188C118.934 29.3919 118.934 38.5974 113.262 44.2705L102.988 54.5463L92.7144 44.2705C87.0423 38.5974 87.0423 29.3919 92.7144 23.7188ZM102.988 81.9485L82.4404 102.5L102.988 123.052L123.536 102.5L102.988 81.9485ZM24.2214 112.776C18.5493 107.103 18.5493 97.8974 24.2214 92.2243C29.8934 86.5512 39.0972 86.5512 44.7693 92.2243L55.0432 102.5L44.7693 112.776C39.0972 118.449 29.8934 118.449 24.2214 112.776ZM113.262 181.281C107.59 186.954 98.3865 186.954 92.7144 181.281C87.0423 175.608 87.0423 166.403 92.7144 160.73L102.988 150.454L113.262 160.73C118.934 166.403 118.934 175.608 113.262 181.281Z" fill="url(#paint0_linear_9117_31663)"/>
<path fill-rule="evenodd" clip-rule="evenodd" d="M195.454 78.5232C182.205 65.2717 160.758 65.2717 147.509 78.5232L137.235 88.799L116.687 68.2474L126.961 57.9715C140.21 44.72 140.21 23.2693 126.961 10.0177C113.712 -3.23378 92.2649 -3.23378 79.0158 10.0177C65.7667 23.2693 65.7667 44.72 79.0158 57.9715L89.2897 68.2474L68.7418 88.799L58.4679 78.5232C45.2188 65.2717 23.7719 65.2717 10.5228 78.5232C-2.72634 91.7747 -2.72634 113.225 10.5228 126.477C23.7719 139.729 45.2188 139.729 58.4679 126.477L68.7418 116.201L89.2897 136.753L79.0158 147.029C65.7667 160.28 65.7667 181.731 79.0158 194.982C92.2649 208.234 113.712 208.234 126.961 194.982C140.21 181.731 140.21 160.28 126.961 147.029L116.687 136.753L137.235 116.201L147.509 126.477C160.758 139.729 182.205 139.729 195.454 126.477C208.703 113.225 208.703 91.7747 195.454 78.5232ZM113.262 181.281C107.59 186.954 98.3865 186.954 92.7144 181.281C87.0423 175.608 87.0423 166.403 92.7144 160.73L102.988 150.454L113.262 160.73C118.934 166.403 118.934 175.608 113.262 181.281ZM82.4404 102.5L102.988 81.9485L123.536 102.5L102.988 123.052L82.4404 102.5ZM92.7144 23.7188C98.3865 18.0457 107.59 18.0457 113.262 23.7188C118.934 29.3919 118.934 38.5974 113.262 44.2705L102.988 54.5463L92.7144 44.2705C87.0423 38.5974 87.0423 29.3919 92.7144 23.7188ZM24.2214 92.2243C18.5493 97.8974 18.5493 107.103 24.2214 112.776C29.8934 118.449 39.0972 118.449 44.7693 112.776L55.0432 102.5L44.7693 92.2243C39.0972 86.5512 29.8934 86.5512 24.2214 92.2243ZM181.755 112.776C176.083 118.449 166.879 118.449 161.207 112.776L150.933 102.5L161.207 92.2243C166.879 86.5512 176.083 86.5512 181.755 92.2243C187.427 97.8974 187.427 107.103 181.755 112.776Z" fill="url(#paint1_linear_9117_31663)"/>
<defs>
<linearGradient id="paint0_linear_9117_31663" x1="0.585938" y1="102.5" x2="205.391" y2="102.5" gradientUnits="userSpaceOnUse">
<stop stop-color="#2CE97A"/>
<stop offset="1" stop-color="#D9D314"/>
</linearGradient>
<linearGradient id="paint1_linear_9117_31663" x1="0.585938" y1="102.5" x2="205.391" y2="102.5" gradientUnits="userSpaceOnUse">
<stop stop-color="#2CE97A"/>
<stop offset="1" stop-color="#D9D314"/>
</linearGradient>
</defs>
</svg>
