<svg width="20" height="20" viewBox="0 0 20 20" fill="none" xmlns="http://www.w3.org/2000/svg">
<path d="M13.1884 9.53292L12.3766 9.96988L13.1857 10.412L19.3099 13.7584L18.1039 15.8349L11.8496 12.2733L11.0957 11.8439L11.1022 12.7116L11.1537 19.5H8.84634L8.89778 12.7116L8.90435 11.8439L8.15036 12.2733L1.8961 15.8349L0.691017 13.7599L6.86804 10.4128L7.68544 9.96988L6.86528 9.53209L0.689096 6.23537L1.89946 4.11338L8.15036 7.67309L8.9044 8.1025L8.89778 7.23479L8.84637 0.5H11.1536L11.1022 7.23479L11.0956 8.1025L11.8496 7.67309L18.1005 4.11338L19.3118 6.23692L13.1884 9.53292Z" stroke="url(#paint0_linear_9117_31934)"/>
<defs>
<linearGradient id="paint0_linear_9117_31934" x1="0" y1="10" x2="20" y2="10" gradientUnits="userSpaceOnUse">
<stop stop-color="#2CE97A"/>
<stop offset="1" stop-color="#D9D314"/>
</linearGradient>
</defs>
</svg>
