<svg width="33" height="32" viewBox="0 0 33 32" fill="none" xmlns="http://www.w3.org/2000/svg">
<path opacity="0.4" d="M16.1751 1.66699C8.25905 1.66699 1.8418 8.08425 1.8418 16.0003C1.8418 23.9165 8.25905 30.3337 16.1751 30.3337C24.0913 30.3337 30.5085 23.9165 30.5085 16.0003C30.5085 8.08425 24.0913 1.66699 16.1751 1.66699Z" fill="#04060C"/>
<path d="M10.8424 16C10.8424 13.0545 13.2303 10.6667 16.1758 10.6667C19.1212 10.6667 21.5091 13.0545 21.5091 16C21.5091 18.9455 19.1212 21.3333 16.1758 21.3333C15.752 21.3333 15.3408 21.2841 14.9472 21.1915L17.4098 15.1716C17.6887 14.49 17.3622 13.7115 16.6806 13.4327C15.9991 13.1539 15.2206 13.4804 14.9418 14.1619L9.09129 28.4629C9.86025 28.9011 10.6737 29.27 11.5231 29.5613L13.9292 23.6799C14.643 23.8884 15.3971 24 16.1758 24C20.594 24 24.1758 20.4183 24.1758 16C24.1758 11.5817 20.594 8 16.1758 8C11.7575 8 8.17578 11.5817 8.17578 16C8.17578 17.1355 8.41329 18.2189 8.84241 19.2007C9.13733 19.8755 9.92341 20.1833 10.5981 19.8884C11.2729 19.5935 11.5808 18.8073 11.2858 18.1327C11.0011 17.4812 10.8424 16.7609 10.8424 16Z" fill="#04060C"/>
</svg>
