<svg width="364" height="365" viewBox="0 0 364 365" fill="none" xmlns="http://www.w3.org/2000/svg">
<path d="M167.971 8.1218C174.817 4.15855 178.24 2.17692 182 2.17692C185.76 2.17692 189.183 4.15855 196.029 8.12179L325.645 83.1616C332.464 87.1092 335.874 89.0831 337.745 92.329C339.617 95.575 339.617 99.5145 339.617 107.394V257.606C339.617 265.485 339.617 269.425 337.745 272.671C335.874 275.917 332.464 277.891 325.645 281.838L196.029 356.878C189.183 360.841 185.76 362.823 182 362.823C178.24 362.823 174.817 360.841 167.971 356.878L38.3546 281.838C31.5358 277.891 28.1263 275.917 26.2549 272.671C24.3834 269.425 24.3834 265.485 24.3834 257.606V107.394C24.3834 99.5145 24.3834 95.575 26.2549 92.329C28.1263 89.0831 31.5358 87.1092 38.3546 83.1616L167.971 8.1218Z" fill="#16171D"/>
<path d="M168.222 8.55451C171.653 6.56801 174.196 5.09665 176.349 4.11838C178.493 3.14468 180.216 2.67692 182 2.67692C183.784 2.67692 185.507 3.14468 187.651 4.11838C189.804 5.09664 192.347 6.568 195.778 8.55451L325.395 83.5943C328.813 85.573 331.345 87.0395 333.259 88.4145C335.164 89.7831 336.424 91.0388 337.312 92.5788C338.2 94.1187 338.655 95.8384 338.885 98.1729C339.116 100.518 339.117 103.444 339.117 107.394V257.606C339.117 261.556 339.116 264.482 338.885 266.827C338.655 269.162 338.2 270.881 337.312 272.421C336.424 273.961 335.164 275.217 333.259 276.585C331.345 277.961 328.813 279.427 325.395 281.406L195.778 356.445C192.347 358.432 189.804 359.903 187.651 360.882C185.507 361.855 183.784 362.323 182 362.323C180.216 362.323 178.493 361.855 176.349 360.882C174.196 359.903 171.653 358.432 168.222 356.445L38.6051 281.406C35.1873 279.427 32.6553 277.961 30.7412 276.585C28.836 275.217 27.5759 273.961 26.688 272.421C25.8001 270.881 25.3448 269.162 25.1149 266.827C24.8839 264.482 24.8834 261.556 24.8834 257.606V107.394C24.8834 103.444 24.8839 100.518 25.1149 98.1729C25.3448 95.8384 25.8001 94.1187 26.688 92.5788C27.5759 91.0388 28.836 89.7831 30.7412 88.4145C32.6552 87.0395 35.1873 85.573 38.6051 83.5943L168.222 8.55451Z" stroke="white" stroke-opacity="0.1"/>
</svg>
